<svg width="200" height="26" viewBox="0 0 200 26" fill="none" xmlns="http://www.w3.org/2000/svg">
<path d="M4.83686 0.199226C3.96562 0.508015 3.1044 1.08575 2.24318 1.93243C1.59226 2.57989 1.3419 2.91856 0.971378 3.65567C0.420597 4.76134 0.180256 5.75743 0.220312 6.77345L0.250355 7.52052L2.33331 7.5504C3.57507 7.56036 4.40625 7.54044 4.40625 7.48067C4.40625 7.43087 4.17592 6.92286 3.89553 6.34513C3.43487 5.39884 3.3848 5.23946 3.3848 4.60196C3.3848 3.85489 3.47493 3.59591 3.88551 3.15763C4.33615 2.68946 5.12727 2.81895 6.10866 3.53614C7.90121 4.85098 8.26172 7.7297 6.96989 10.5088C6.49922 11.5149 6.18878 12.0229 4.09581 15.1904C2.30327 17.9098 1.36193 19.5533 0.821165 20.918C0.50071 21.7149 0.150213 23.0596 0.0600852 23.8266L0 24.3047H5.74815H11.4863L11.5564 22.183C11.5864 21.0275 11.6465 19.6828 11.6766 19.2047L11.7366 18.3381L11.4062 18.2783C11.2159 18.2484 10.8654 18.2086 10.6151 18.1986L10.1744 18.1787L9.76385 19.2246C9.29318 20.4697 8.97273 20.9977 8.68231 21.0674C8.48203 21.1072 3.50497 21.1869 3.50497 21.1471C3.50497 21.1471 3.69524 20.8084 3.92557 20.4C4.75675 18.9358 5.68807 17.6608 7.90121 14.9315C10.9656 11.1662 11.8468 9.08438 11.6065 6.21563C11.4562 4.39278 10.8254 3.00821 9.61364 1.79298C8.13153 0.308796 6.25888 -0.318743 4.83686 0.199226Z" fill="#F4EDDD"/>
<path d="M99.2708 0.149401C97.278 0.587681 95.4454 2.40057 94.444 4.89081C93.7931 6.51444 93.3324 8.85526 93.3324 10.5486C93.3324 13.3875 94.0534 15.7582 95.856 18.9258C97.298 21.4459 97.7487 22.5715 97.9089 24.0656L97.989 24.7529L98.66 24.7828C99.4711 24.8127 100.563 24.484 101.484 23.9262C102.345 23.4082 103.477 22.3025 104.108 21.3562C105.069 19.9219 105.85 17.7105 106.01 15.9973L106.08 15.2402H104.048H102.015L102.085 16.0072C102.215 17.5014 101.834 19.643 101.194 20.9877C100.883 21.6451 100.092 22.6113 99.8516 22.6113C99.8016 22.6113 99.7916 22.1531 99.8116 21.5355C99.8917 19.8322 99.6714 18.9158 98.3095 15.4295C97.1578 12.491 96.7773 9.47284 97.1779 6.5244C97.5384 3.83495 98.6199 2.04198 99.8817 2.04198C100.673 2.04198 101.153 2.61971 101.504 3.98436C101.674 4.62186 101.744 6.31522 101.644 7.12206L101.594 7.52049L103.727 7.55038L105.86 7.5703L105.79 7.05233C105.67 6.04628 105.329 4.63182 105.039 3.90467C104.508 2.57987 103.477 1.2451 102.535 0.67733C101.624 0.119516 100.312 -0.0896626 99.2708 0.149401Z" fill="#F4EDDD"/>
<path d="M149.432 0.149424C148.11 0.557823 146.177 2.2213 145.486 3.53614C144.916 4.64181 144.705 5.44864 144.705 6.58419V7.57032H146.758C148.37 7.57032 148.811 7.54044 148.811 7.44083C148.811 7.3711 148.631 6.94278 148.401 6.48458C147.86 5.38888 147.74 4.7713 147.9 4.04415C148.07 3.28712 148.451 2.88868 149.011 2.88868C149.722 2.88868 150.774 3.56602 151.355 4.4127C151.905 5.19962 152.136 6.02638 152.146 7.22169C152.166 9.27364 151.495 10.8176 148.961 14.5928C146.958 17.5611 146.207 18.7863 145.707 19.8621C145.056 21.2865 144.505 23.1791 144.505 24.0258V24.3047H150.243H155.971V22.9799C155.981 22.2627 156.041 20.9379 156.121 20.0414C156.192 19.1549 156.232 18.3979 156.192 18.368C156.162 18.3381 155.831 18.2684 155.451 18.2285C154.659 18.119 154.639 18.1389 154.319 19.0154C154.209 19.3242 154.049 19.7525 153.968 19.9717C153.888 20.1908 153.678 20.5395 153.508 20.7486L153.207 21.1172H150.604C149.182 21.1172 148.01 21.0973 148.01 21.0674C148.01 20.9379 149.192 19.0752 149.833 18.1787C150.233 17.6309 151.204 16.3758 151.996 15.3897C154.369 12.4313 155.37 10.7877 155.841 9.08438C156.131 8.03849 156.151 5.93673 155.891 4.93067C155.07 1.79298 151.845 -0.607607 149.432 0.149424Z" fill="#F4EDDD"/>
<path d="M164.343 0.488087C161.159 2.59981 159.346 5.54824 158.605 9.81152C158.335 11.3953 158.395 14.3836 158.715 15.7881C159.186 17.8002 160.147 20.0115 161.339 21.8244C162.07 22.94 163.572 24.4641 164.263 24.7928C164.894 25.0916 165.224 25.0318 166.096 24.4143C168.819 22.4918 170.772 18.8959 171.253 14.9115C171.423 13.4971 171.323 10.967 171.043 9.67207C170.402 6.66387 168.699 3.29707 166.837 1.35469C166.076 0.557814 165.395 0 165.184 0C165.124 0 164.744 0.219141 164.343 0.488087ZM164.013 4.43262C165.074 5.87695 166.546 8.52656 167.217 10.2199C168.819 14.2342 168.829 18.2684 167.237 20.3602C166.987 20.6988 166.706 20.9777 166.596 20.9977C166.316 21.0574 165.304 19.9518 164.453 18.6768C161.329 14.0051 160.458 8.52656 162.3 5.17969C162.741 4.37285 163.201 3.78516 163.392 3.78516C163.472 3.78516 163.752 4.07402 164.013 4.43262Z" fill="#F4EDDD"/>
<path d="M178.093 0.17931C177.231 0.478138 176.45 1.00607 175.539 1.89259C174.568 2.8588 174.187 3.45646 173.756 4.73146C173.476 5.59806 173.406 6.08614 173.436 7.0922L173.446 7.57032H175.479C176.6 7.57032 177.542 7.54044 177.582 7.51056C177.612 7.48067 177.422 7.00255 177.151 6.46466C176.881 5.91681 176.631 5.25939 176.59 5.01036C176.5 4.37286 176.701 3.56603 177.051 3.18751C177.582 2.61974 178.553 2.84884 179.585 3.78517C181.087 5.14982 181.377 7.51056 180.366 10.1203C179.965 11.1463 179.384 12.1225 177.231 15.3399C174.447 19.5035 173.596 21.3363 173.306 23.7768L173.236 24.3047H179.004H184.762L184.772 22.9301C184.772 22.183 184.832 20.8682 184.902 20.0215C184.972 19.1748 185.002 18.4377 184.962 18.3979C184.872 18.2983 183.57 18.109 183.46 18.1787C183.42 18.2086 183.24 18.607 183.07 19.0752C182.669 20.1908 182.299 20.8881 182.058 21.0176C181.938 21.0873 180.957 21.1072 179.304 21.0973L176.741 21.0674L177.382 20.0016C178.213 18.627 178.874 17.7205 180.696 15.4594C183 12.6006 183.961 11.0666 184.512 9.36329C184.872 8.25763 184.972 6.33517 184.722 5.1797C184.021 1.88263 180.616 -0.687292 178.093 0.17931Z" fill="#F4EDDD"/>
<path d="M193.685 0.597668C192.613 1.29493 191.371 2.4504 190.65 3.40665C188.147 6.76349 186.925 10.8176 187.266 14.5828C187.516 17.2524 188.217 19.3242 189.589 21.3662C190.961 23.4082 193.314 25.2709 194.205 25.0219C194.736 24.8725 195.868 24.1055 196.659 23.3584C198.652 21.4858 199.693 19.4238 199.854 16.9834C200.094 13.3178 197.11 9.18399 194.205 9.16407C193.464 9.16407 192.353 9.73185 191.241 10.6881C190.921 10.957 190.64 11.1662 190.62 11.1463C190.54 11.0567 190.791 8.86524 190.971 8.11817C191.241 6.96271 191.732 5.64786 192.203 4.74142C192.633 3.9545 193.334 3.0879 193.565 3.0879C193.775 3.0879 194.606 4.01427 194.997 4.68165C195.197 5.02032 195.487 5.59806 195.638 5.96661C195.788 6.32521 195.928 6.634 195.938 6.65392C195.978 6.72364 198.782 5.26935 198.782 5.1797C198.782 5.11993 198.642 4.7215 198.472 4.28321C198.101 3.32697 197.36 2.16154 196.599 1.36466C196.038 0.776966 194.967 1.33514e-05 194.726 1.33514e-05C194.656 1.33514e-05 194.185 0.268957 193.685 0.597668ZM193.695 12.5209C195.547 13.8656 197.04 17.0332 196.829 19.1549C196.749 20.0514 196.439 20.8483 196.018 21.3065L195.688 21.665L195.327 21.4758C194.826 21.2068 193.414 19.7127 192.824 18.8361C191.952 17.5213 191.171 15.3697 191.171 14.284C191.171 13.1584 192.183 11.9432 192.974 12.1125C193.104 12.1424 193.434 12.3217 193.695 12.5209Z" fill="#F4EDDD"/>
<path d="M90.0578 0.547844C89.4469 0.856634 88.836 1.48417 88.4855 2.17148C87.9948 3.12773 87.3139 5.608 86.4226 9.6621C86.1422 10.9471 85.8818 12.0726 85.8518 12.1523C85.8217 12.242 85.7216 12.0627 85.6014 11.7041C85.3911 11.0467 83.8389 5.13984 83.168 2.44042L82.7474 0.747063L80.8347 0.71718C79.7732 0.70722 78.9119 0.72714 78.9119 0.776945C78.9119 0.976164 82.0564 12.7101 82.5371 14.2641L82.7374 14.9414H83.9791C85.2209 14.9414 85.2209 14.9414 85.1708 15.1605C84.6401 17.4615 83.6787 21.8941 83.4684 22.95C83.2781 23.956 83.2381 24.3644 83.3182 24.4441C83.4384 24.5637 87.3239 24.6732 87.3239 24.5537C87.3239 24.5238 87.1937 24.2449 87.0335 23.9262C85.982 21.8443 86.012 20.8881 87.434 13.8955C88.3754 9.26367 89.1264 6.41484 89.6572 5.44863C90.0477 4.7414 90.8789 4.5621 91.5799 5.03027C91.7802 5.17968 91.9705 5.26933 92.0005 5.23945C92.0305 5.21952 92.1107 4.6916 92.1908 4.06405C92.2609 3.44648 92.4011 2.4703 92.4912 1.90253L92.6614 0.866594L92.4411 0.687298C91.8803 0.239056 90.8088 0.179289 90.0578 0.547844Z" fill="#F4EDDD"/>
<path d="M56.5302 0.697275C54.9279 0.926376 53.5159 1.74317 52.7849 2.86876C52.3242 3.58595 51.9036 4.98048 51.7835 6.16583C51.7134 6.80333 51.6733 10.459 51.6733 15.7483V24.3047H57.1811H62.6889L62.8291 24.0756C63.2998 23.3783 63.4801 21.426 63.2998 19.1649C63.0394 15.9873 62.3485 14.4135 60.6861 13.1983C60.4357 13.009 59.3742 12.4213 58.3428 11.8834C57.3013 11.3455 56.4601 10.8574 56.4601 10.8176C56.4701 10.7678 56.8406 10.6184 57.3013 10.4889C59.5345 9.86134 61.1868 8.61622 61.9779 6.96271C62.5588 5.77735 62.769 4.43263 62.6088 3.10782C62.4186 1.6336 62.058 1.02599 61.2369 0.806847C60.7061 0.667393 57.2913 0.587706 56.5302 0.697275ZM58.8034 2.57989C59.1239 2.8588 59.1339 2.89864 59.1639 3.77521C59.234 5.51837 58.7433 7.00255 57.782 7.9588C57.2913 8.44689 56.2899 9.0047 55.689 9.12423L55.3786 9.18399V7.90899C55.3886 3.94454 56.1396 2.30099 57.9522 2.29103C58.3928 2.29103 58.533 2.34083 58.8034 2.57989ZM56.4901 13.009C58.6232 14.4334 59.214 15.4893 59.4944 18.3779C59.5945 19.4836 59.5445 22.0336 59.4143 22.3723C59.3742 22.4818 58.9536 22.5117 57.3714 22.5117H55.3786V17.4317C55.3786 14.6326 55.4086 12.3516 55.4387 12.3516C55.4687 12.3516 55.9494 12.6504 56.4901 13.009Z" fill="#F4EDDD"/>
<path d="M40.1069 0.966227C40.1469 1.1256 40.3472 1.97228 40.5575 2.8588L40.9281 4.47248L40.5275 5.24943C40.3072 5.67775 39.7364 6.74357 39.2557 7.62013C37.6734 10.4988 37.0526 11.8336 36.3916 13.776C35.23 17.2125 35.1899 21.0176 36.3115 23.2787C36.9925 24.6733 37.8537 24.8227 39.6863 23.8764C41.1984 23.0994 42.7606 21.3264 43.5618 19.4537C43.9323 18.5971 43.9423 18.5772 44.0024 18.6369C44.0425 18.6768 44.9437 22.9998 45.104 23.9262L45.1741 24.3047H47.1168C48.1883 24.3047 49.0696 24.2649 49.0696 24.225C49.0696 24.1752 48.8493 23.1592 48.5789 21.9539C47.7878 18.4178 44.6834 3.97443 44.2528 1.81291L44.0325 0.697281H42.0396H40.0368L40.1069 0.966227ZM42.0897 9.63224C42.3501 10.9371 42.7206 12.7201 42.9109 13.5967C43.3114 15.4395 43.3315 15.8977 43.0711 16.6447C42.4702 18.3779 41.3687 19.8621 40.4774 20.1311C39.6963 20.3602 39.3358 20.0115 39.1055 18.7863C38.7049 16.7045 39.1655 13.3576 40.2471 10.3594C40.6477 9.26369 41.4888 7.2715 41.5589 7.2715C41.589 7.2715 41.8293 8.33732 42.0897 9.63224Z" fill="#F4EDDD"/>
<path d="M66.264 0.776962C66.254 0.816807 66.264 1.60372 66.3041 2.54005C66.3441 3.46642 66.3742 8.74571 66.3842 14.2641L66.3942 24.3047H68.1967H69.9993V13.3975V2.49024H71.4614C73.6344 2.49024 73.7546 2.57989 74.055 4.48243C74.4456 6.96271 74.696 7.85919 75.1366 8.39708C75.3068 8.61622 75.4771 8.69591 75.8376 8.73575L76.3082 8.79552V7.71974C76.3082 6.30528 76.5185 4.92071 77.0693 2.78907C77.3097 1.82286 77.5099 0.966221 77.5099 0.866611C77.5099 0.707237 77.1695 0.697275 71.902 0.697275C68.8176 0.707237 66.284 0.73712 66.264 0.776962Z" fill="#F4EDDD"/>
<path d="M107.302 0.796886C107.272 0.846691 107.332 1.22521 107.442 1.61368C107.553 2.01212 107.813 3.09786 108.013 4.03419C108.304 5.4088 108.384 6.01642 108.424 7.24161L108.484 8.76564H108.874C109.195 8.76564 109.345 8.69591 109.605 8.43692C110.036 8.00861 110.286 7.18185 110.607 5.10001C110.747 4.20353 110.937 3.30704 111.028 3.11778C111.238 2.65958 111.658 2.49025 112.56 2.49025H113.261V13.3975V24.3047H115.063H116.866V13.3975V2.49025H117.607C118.198 2.49025 118.398 2.53009 118.668 2.70939C119.089 2.99825 119.199 3.317 119.459 5.06017C119.72 6.77345 119.9 7.47071 120.231 8.07833C120.511 8.57638 120.801 8.76564 121.272 8.76564H121.572V7.68986C121.572 6.2256 121.703 5.26935 122.223 2.93849C122.474 1.84278 122.674 0.886536 122.674 0.816809C122.674 0.657434 107.402 0.637512 107.302 0.796886Z" fill="#F4EDDD"/>
<path d="M127.23 0.986166C127.471 1.93246 127.982 4.25336 127.982 4.41273C127.982 4.62191 127.291 5.95667 126.049 8.168C124.346 11.1862 123.265 13.9553 122.814 16.4356C122.574 17.7504 122.574 20.1809 122.814 21.2965C123.205 23.1194 123.776 24.2051 124.447 24.4043C125.118 24.6036 126.369 24.225 127.481 23.478C128.973 22.4719 130.135 20.9379 130.926 18.9358C131.016 18.6967 131.116 18.5174 131.136 18.5473C131.166 18.5672 131.386 19.6131 131.637 20.8782C131.887 22.1332 132.137 23.4182 132.198 23.727L132.318 24.3047H134.25C135.482 24.3047 136.193 24.2649 136.193 24.2051C136.193 24.1453 135.923 22.9102 135.602 21.436C134.581 16.9037 131.637 3.15765 131.326 1.52406L131.166 0.70726H129.163L127.16 0.71722L127.23 0.986166ZM129.384 10.5586C130.505 15.9774 130.435 15.5789 130.315 16.1866C130.115 17.093 129.263 18.7366 128.663 19.3541C128.042 19.9817 127.371 20.2905 126.96 20.1311C125.979 19.7625 125.788 16.2862 126.57 13.0389C127 11.236 128.512 7.2516 128.683 7.44086C128.723 7.4807 129.043 8.88519 129.384 10.5586Z" fill="#F4EDDD"/>
<path d="M19.5372 0.894789C19.5903 2.29218 19.124 4.41646 18.3626 6.25249C18.0498 7.01072 17.5363 8.00706 16.6214 9.60497C15.5118 11.5538 14.7327 13.3209 14.349 14.7622C14.2015 15.3199 13.9418 16.7423 13.9418 16.9992C13.9418 17.0619 14.6087 17.0807 17.07 17.0807H20.1983L20.1628 18.4091C20.1451 19.1423 20.1097 20.6901 20.0802 21.8431C20.0448 22.9961 20.0212 24.0363 20.0212 24.1491V24.3496H21.9808H23.9344L23.899 23.6102C23.7515 20.8593 23.6806 19.3992 23.6452 18.3152L23.6039 17.0807H24.7549C25.3864 17.0807 25.9176 17.0682 25.9294 17.0556C25.9412 17.0431 25.9471 16.7172 25.9353 16.335L25.9176 15.6394H24.7667H23.6216V14.1794C23.6275 12.5439 23.6983 9.82429 23.8046 7.59975C23.8459 6.78513 23.8636 6.1021 23.8459 6.0833C23.8341 6.0645 23.7043 6.03317 23.5567 6.01437C23.297 5.97677 23.297 5.97677 23.173 6.24622C22.9606 6.70366 22.3703 7.49949 21.8568 8.00706C21.3846 8.4833 20.4521 9.19139 20.1983 9.27912C20.0743 9.32299 20.0684 9.34805 20.1038 9.83682C20.1215 10.1125 20.1569 11.535 20.1746 12.9888L20.216 15.6394H18.5279C17.5363 15.6394 16.828 15.6144 16.8044 15.583C16.7867 15.5454 16.7572 15.2572 16.7395 14.9376C16.6805 13.9475 16.9047 13.0577 17.5776 11.6102C17.9672 10.7705 18.4039 10.0561 18.9234 9.40445C19.9799 8.08226 21.0246 6.735 21.2784 6.38408C22.0516 5.31254 22.8779 3.68957 23.2085 2.61802C23.3619 2.10419 23.5213 1.37729 23.6511 0.581472L23.6865 0.349619H21.603H19.5195L19.5372 0.894789Z" fill="#F4EDDD"/>
</svg>
