<svg width="83" height="698" viewBox="0 0 83 698" fill="none" xmlns="http://www.w3.org/2000/svg">
<path d="M3.24039 364.098C2.97449 373.125 4.14999 380.232 3.98389 391.235C3.81769 402.238 3.19409 403.886 3.33439 416.487C3.47469 429.088 3.04819 441.696 3.30439 447.307C3.56069 452.917 2.78589 453.509 2.95799 461.477C3.12999 469.444 3.02889 474.272 2.77709 481.24C2.52519 488.209 2.31019 509.616 2.61959 517.4C2.92899 525.185 2.39219 534.063 2.26489 539.403C2.22519 541.066 2.17089 542.375 2.11449 543.378C2.09049 543.803 2.04039 544 1.99099 544C1.92939 544 1.86879 543.695 1.86099 543.149C1.82329 540.497 1.72369 536.534 1.50039 531.851C1.08419 523.121 1.54419 522.167 1.33029 510.378C1.11639 498.589 0.688791 491.506 0.965291 477.635C1.24179 463.764 0.0846915 460.578 0.740392 440.997C1.39619 421.417 0.185992 419.356 0.025092 399.844C-0.135808 380.332 0.531891 355.701 0.476491 343.939C0.421191 332.177 0.280191 316.379 0.439891 299.705C0.599591 283.03 0.196491 262.446 0.481391 244.04C0.766391 225.634 1.12619 199.613 1.36739 187.591C1.60859 175.569 1.66299 172.639 1.51559 161.068C1.43089 154.417 1.51069 145.254 1.82219 137.515C1.97899 133.62 2.19729 134.503 2.30169 138.423C2.45449 144.156 2.35239 148.862 2.62519 151.816C3.17039 157.719 3.37959 160.227 3.06219 167.679C2.74489 175.13 3.46599 178.641 3.38299 182.985C3.29999 187.329 2.87469 187.257 3.20239 209.344C3.53009 231.43 3.61369 243.538 3.69239 251.902C3.77099 260.266 3.40189 277.731 3.53509 291.362C3.66839 304.994 3.54619 332.706 3.76439 343.877C3.98249 355.048 3.50639 355.071 3.24039 364.098Z" fill="#8C8B55"/>
<path d="M83 698C83 698 77.4384 697.993 69.6697 689.206C60.3331 678.645 50.1082 673.946 37.444 673.087C23.4086 672.136 11.2394 679.053 6.81858 689.921C2.39598 700.788 17.0417 699.472 23.317 693.14C29.5923 686.807 23.1102 679.396 15.1127 685.413C10.6546 688.768 11.3852 694.409 18.9403 692.495C18.9403 692.495 14.594 696.496 9.90018 695.251C5.20648 694.007 9.26968 684.707 17.8842 679.303C26.5004 673.898 35.2573 674.738 46.6162 678.496C58.6939 682.492 67.2677 688.056 56.336 697.996L83 698Z" fill="#8C8B55"/>
<path d="M38.6379 676.37C35.3931 675.172 45.3861 676.785 49.3204 682.657C53.5251 688.931 55.1103 692.249 58.5951 691.609C59.8592 691.378 60.6856 690.031 60.6197 688.734C60.5538 687.44 59.8558 686.275 59.1764 685.173C60.7076 686.804 61.8314 688.9 61.9835 691.143C62.1373 693.385 61.2112 695.754 59.3725 697.02C57.2634 698.472 54.9075 698.354 52.4367 696.376C50.4358 694.776 48.8151 692.555 47.1944 689.013C47.1944 689.037 46.3696 679.224 38.6379 676.37Z" fill="#8C8B55"/>
<path d="M47.9868 687.992C47.1224 690.283 45.8457 693.491 41.5723 696.434C39.0482 698.174 35.5252 698.393 32.5836 697.442C29.642 696.491 27.2198 693.89 27.0145 690.905C26.8609 688.682 27.9427 686.447 29.7059 685.005C31.1999 683.781 33.2133 683.098 35.156 683.364C37.0969 683.628 38.905 684.912 39.5537 686.696C39.8384 687.478 39.8815 688.403 39.3949 689.084C38.9084 689.768 37.7749 690.025 37.1642 689.443C36.6259 688.928 36.6966 688.053 36.2653 687.453C35.6943 686.656 34.44 686.628 33.5308 687.037C31.5398 687.934 30.6962 690.513 31.5605 692.462C32.4249 694.409 34.7039 695.591 36.8985 695.491C39.0947 695.393 41.9552 693.912 43.2578 692.206C46.1183 688.457 46.6083 685.358 43.6891 680C46.5755 682.754 48.1628 684.51 47.9868 687.992Z" fill="#8C8B55"/>
<path d="M39.6122 690.139C41.5892 688.182 41.4062 684.735 39.6427 682.591C37.8809 680.446 34.9248 679.504 32.1178 679.562C29.3091 679.62 26.6003 680.554 24 681.599C26.8511 679.026 31.6859 676.336 36.2055 677.147C39.5682 677.752 42.8411 679.66 44.303 682.692C45.765 685.724 44.9027 689.87 41.9449 691.551C41.2487 691.946 40.3576 692.192 39.6546 691.807C38.9533 691.423 38.9736 690.65 39.6122 690.139Z" fill="#8C8B55"/>
<path d="M1 678C3.5544 674.474 5.4562 670.541 6.5991 666.424C7.0894 664.655 7.3562 662.549 6.024 661.21C4.7441 659.924 2.8856 659.949 1 660.034V678Z" fill="#8C8B55"/>
<path d="M1.40891 693C1.40891 685.264 6.35251 679.154 11.2995 673.606C16.2448 668.058 21.9426 662.57 23.6011 655.392C24.1685 652.932 24.2073 650.285 23.2116 647.959C22.5877 646.5 21.5056 645.196 20.1556 644.347C18.7615 643.47 16.9216 644.345 16.7488 645.956C16.3787 649.427 18.0231 653.27 17.4908 656.86C16.8123 661.443 12.8187 664.725 9.79621 668.29C3.76351 675.404 -0.348189 684.828 1.40891 693Z" fill="#8C8B55"/>
<path d="M6.28401 673C9.08891 669.509 10.8102 665.104 11.1398 660.582C11.2152 659.562 11.207 658.48 10.7185 657.591C10.2299 656.703 9.11031 656.108 8.21521 656.548C7.77581 657.905 6.34471 658.785 4.96271 658.711C3.57911 658.638 2.30861 657.712 1.61681 656.474C0.162708 653.871 1.41351 650.199 3.96761 648.763C6.52171 647.325 9.90531 648.013 12.048 650.043C14.1906 652.075 15.1512 655.219 14.9807 658.218C14.8119 661.217 13.6103 664.075 11.9922 666.571C10.3726 669.067 8.34141 671.242 6.28401 673Z" fill="#8C8B55"/>
<path d="M1 647.27C2.4624 645.205 4.6261 643.65 7.0458 642.922C7.7232 642.719 8.4314 642.579 9.1327 642.662C9.8324 642.744 10.5286 643.078 10.6992 643.961C9.5098 644.568 9.4331 646.468 10.4228 647.364C11.4142 648.261 13.0455 648.161 14.1189 647.366C15.1922 646.572 15.7604 645.237 15.9328 643.911C16.4276 640.087 14.0745 636.564 12.6889 632.968C10.9142 628.355 10.7112 623.151 11.8561 618.647C8.9314 624.369 8.8648 631.663 11.0047 637.725C9.445 633.054 5.8513 632.207 3.8036 628.487C0.3055 622.139 2.1979 614.893 4.691 610.479C7.2284 605.984 10.6549 602.746 13.7281 599.493C10.9927 600.359 8.4246 601.748 6.3018 603.587C6.8001 602.125 6.411 600.395 5.3343 599.288C4.2592 598.179 2.546 597.743 1.0563 598.15L1 647.27Z" fill="#8C8B55"/>
<path d="M0 598V694H2V598H0Z" fill="#8C8B55"/>
<path d="M83 0.000475186C83 0.000475186 77.4384 0.00727463 69.6697 8.79437C60.3331 19.3553 50.1082 24.0542 37.444 24.9129C23.4086 25.864 11.2394 18.9465 6.81858 8.07937C2.39598 -2.78773 17.0417 -1.47232 23.317 4.86008C29.5923 11.1926 23.1102 18.6044 15.1127 12.5867C10.6546 9.23228 11.3852 3.59087 18.9403 5.50497C18.9403 5.50497 14.594 1.50398 9.90018 2.74928C5.20648 3.99288 9.26968 13.2931 17.8842 18.6968C26.5004 24.1021 35.2573 23.2622 46.6162 19.5041C58.6939 15.5083 67.2677 9.94388 56.336 0.00387599L83 0.000475186Z" fill="#8C8B55"/>
<path d="M38.6379 21.6303C35.3931 22.8276 45.3861 21.2153 49.3204 15.343C53.5251 9.0694 55.1103 5.7507 58.5951 6.3912C59.8592 6.6218 60.6856 7.9694 60.6197 9.2658C60.5538 10.5605 59.8558 11.7254 59.1764 12.8271C60.7076 11.1959 61.8314 9.1001 61.9835 6.8575C62.1373 4.6148 61.2112 2.2458 59.3725 0.980097C57.2634 -0.471703 54.9075 -0.353903 52.4367 1.624C50.4358 3.2245 48.8151 5.4449 47.1944 8.9874C47.1944 8.9635 46.3696 18.7762 38.6379 21.6303Z" fill="#8C8B55"/>
<path d="M47.9868 10.0082C47.1224 7.71683 45.8457 4.50913 41.5723 1.56583C39.0482 -0.17357 35.5252 -0.39307 32.5836 0.55813C29.642 1.50933 27.2198 4.11003 27.0145 7.09493C26.8609 9.31813 27.9427 11.553 29.7059 12.9947C31.1999 14.2186 33.2133 14.9021 35.156 14.636C37.0969 14.3716 38.905 13.0879 39.5537 11.3036C39.8384 10.5221 39.8815 9.59753 39.3949 8.91573C38.9084 8.23233 37.7749 7.97453 37.1642 8.55653C36.6259 9.07203 36.6966 9.94673 36.2653 10.547C35.6943 11.3435 34.44 11.3718 33.5308 10.9627C31.5398 10.0664 30.6962 7.48733 31.5605 5.53843C32.4249 3.59123 34.7039 2.40893 36.8985 2.50873C39.0947 2.60683 41.9552 4.08843 43.2578 5.79453C46.1183 9.54263 46.6083 12.6422 43.6891 18C46.5755 15.2463 48.1628 13.4903 47.9868 10.0082Z" fill="#8C8B55"/>
<path d="M39.6122 7.86109C41.5892 9.81799 41.4062 13.2649 39.6427 15.4094C37.8809 17.5539 34.9248 18.4958 32.1178 18.4377C29.3091 18.3795 26.6003 17.446 24 16.4011C26.8511 18.9742 31.6859 21.6636 36.2055 20.853C39.5682 20.2483 42.8411 18.3397 44.303 15.3081C45.765 12.2765 44.9027 8.13019 41.9449 6.44919C41.2487 6.05379 40.3576 5.80799 39.6546 6.19329C38.9533 6.57709 38.9736 7.34949 39.6122 7.86109Z" fill="#8C8B55"/>
<path d="M1 20C3.5544 23.5256 5.4562 27.4593 6.5991 31.5762C7.0894 33.3448 7.3562 35.4511 6.024 36.7898C4.7441 38.0764 2.8856 38.0512 1 37.9656V20Z" fill="#8C8B55"/>
<path d="M1.40891 5C1.40891 12.7359 6.35251 18.8457 11.2995 24.394C16.2448 29.9423 21.9426 35.4303 23.6011 42.608C24.1685 45.0678 24.2073 47.7154 23.2116 50.0408C22.5877 51.4998 21.5056 52.8037 20.1556 53.6529C18.7615 54.5297 16.9216 53.6546 16.7488 52.0441C16.3787 48.5732 18.0231 44.7302 17.4908 41.1405C16.8123 36.5568 12.8187 33.2754 9.79621 29.7097C3.76351 22.5957 -0.348189 13.1717 1.40891 5Z" fill="#8C8B55"/>
<path d="M6.28401 25C9.08891 28.4915 10.8102 32.8956 11.1398 37.4183C11.2152 38.4376 11.207 39.5196 10.7185 40.4085C10.2299 41.2975 9.11031 41.8918 8.21521 41.4516C7.77581 40.0953 6.34471 39.2148 4.96271 39.2893C3.57911 39.3621 2.30861 40.2883 1.61681 41.5261C0.162708 44.1286 1.41351 47.8012 3.96761 49.2371C6.52171 50.6747 9.90531 49.9872 12.048 47.957C14.1906 45.9251 15.1512 42.7808 14.9807 39.782C14.8119 36.7833 13.6103 33.9251 11.9922 31.4293C10.3726 28.9334 8.34141 26.7576 6.28401 25Z" fill="#8C8B55"/>
<path d="M1 50.73C2.4624 52.7952 4.6261 54.3504 7.0458 55.0776C7.7232 55.2812 8.4314 55.4215 9.1327 55.3377C9.8324 55.2555 10.5286 54.9219 10.6992 54.039C9.5098 53.4316 9.4331 51.5325 10.4228 50.6359C11.4142 49.7394 13.0455 49.8386 14.1189 50.6342C15.1922 51.4281 15.7604 52.7627 15.9328 54.0887C16.4276 57.9127 14.0745 61.4355 12.6889 65.032C10.9142 69.6447 10.7112 74.8495 11.8561 79.3527C8.9314 73.6313 8.8648 66.3374 11.0047 60.2755C9.445 64.9464 5.8513 65.7934 3.8036 69.513C0.3055 75.8607 2.1979 83.1066 4.691 87.521C7.2284 92.016 10.6549 95.254 13.7281 98.507C10.9927 97.641 8.4246 96.252 6.3018 94.413C6.8001 95.875 6.411 97.605 5.3343 98.712C4.2592 99.821 2.546 100.257 1.0563 99.85L1 50.73Z" fill="#8C8B55"/>
<path d="M0 100V4H2V100H0Z" fill="#8C8B55"/>
</svg>
