<svg width="84" height="698" viewBox="0 0 84 698" fill="none" xmlns="http://www.w3.org/2000/svg">
<path d="M83.24 364.098C82.974 373.125 84.15 380.232 83.984 391.235C83.818 402.238 83.194 403.886 83.334 416.487C83.475 429.088 83.048 441.696 83.304 447.307C83.561 452.917 82.786 453.509 82.958 461.477C83.13 469.444 83.029 474.272 82.777 481.24C82.525 488.209 82.31 509.616 82.62 517.4C82.929 525.185 82.392 534.063 82.265 539.403C82.225 541.066 82.171 542.375 82.114 543.378C82.091 543.803 82.04 544 81.991 544C81.929 544 81.869 543.695 81.861 543.149C81.823 540.497 81.724 536.534 81.5 531.851C81.084 523.121 81.544 522.167 81.33 510.378C81.116 498.589 80.689 491.506 80.965 477.635C81.242 463.764 80.085 460.578 80.74 440.997C81.396 421.417 80.186 419.356 80.025 399.844C79.864 380.332 80.532 355.701 80.477 343.939C80.421 332.177 80.28 316.379 80.44 299.705C80.6 283.03 80.196 262.446 80.481 244.04C80.766 225.634 81.126 199.613 81.367 187.591C81.609 175.569 81.663 172.639 81.516 161.068C81.431 154.417 81.511 145.254 81.822 137.515C81.979 133.62 82.197 134.503 82.302 138.423C82.454 144.156 82.352 148.862 82.625 151.816C83.17 157.719 83.38 160.227 83.062 167.679C82.745 175.13 83.466 178.641 83.383 182.985C83.3 187.329 82.875 187.257 83.202 209.344C83.53 231.43 83.614 243.538 83.692 251.902C83.771 260.266 83.402 277.731 83.535 291.362C83.668 304.994 83.546 332.706 83.764 343.877C83.982 355.048 83.506 355.071 83.24 364.098Z" fill="#8C8B55"/>
<path d="M0 698C0 698 5.56199 697.993 13.33 689.206C22.667 678.645 32.892 673.946 45.556 673.087C59.591 672.136 71.761 679.053 76.181 689.921C80.604 700.788 65.958 699.472 59.683 693.14C53.408 686.807 59.89 679.396 67.887 685.413C72.345 688.768 71.615 694.409 64.06 692.495C64.06 692.495 68.406 696.496 73.1 695.251C77.793 694.007 73.73 684.707 65.116 679.303C56.5 673.898 47.743 674.738 36.384 678.496C24.306 682.492 15.732 688.056 26.664 697.996L0 698Z" fill="#8C8B55"/>
<path d="M44.362 676.37C47.607 675.172 37.614 676.785 33.68 682.657C29.475 688.931 27.89 692.249 24.405 691.609C23.141 691.378 22.314 690.031 22.38 688.734C22.446 687.44 23.144 686.275 23.824 685.173C22.292 686.804 21.169 688.9 21.017 691.143C20.863 693.385 21.789 695.754 23.628 697.02C25.737 698.472 28.093 698.354 30.563 696.376C32.564 694.776 34.185 692.555 35.806 689.013C35.806 689.037 36.63 679.224 44.362 676.37Z" fill="#8C8B55"/>
<path d="M35.013 687.992C35.878 690.283 37.154 693.491 41.428 696.434C43.952 698.174 47.475 698.393 50.416 697.442C53.358 696.491 55.78 693.89 55.986 690.905C56.139 688.682 55.057 686.447 53.294 685.005C51.8 683.781 49.787 683.098 47.844 683.364C45.903 683.628 44.095 684.912 43.446 686.696C43.162 687.478 43.119 688.403 43.605 689.084C44.092 689.768 45.225 690.025 45.836 689.443C46.374 688.928 46.303 688.053 46.735 687.453C47.306 686.656 48.56 686.628 49.469 687.037C51.46 687.934 52.304 690.513 51.439 692.462C50.575 694.409 48.296 695.591 46.102 695.491C43.905 695.393 41.045 693.912 39.742 692.206C36.882 688.457 36.392 685.358 39.311 680C36.424 682.754 34.837 684.51 35.013 687.992Z" fill="#8C8B55"/>
<path d="M43.388 690.139C41.411 688.182 41.594 684.735 43.357 682.591C45.119 680.446 48.075 679.504 50.882 679.562C53.691 679.62 56.4 680.554 59 681.599C56.149 679.026 51.314 676.336 46.794 677.147C43.432 677.752 40.159 679.66 38.697 682.692C37.235 685.724 38.097 689.87 41.055 691.551C41.751 691.946 42.642 692.192 43.345 691.807C44.047 691.423 44.026 690.65 43.388 690.139Z" fill="#8C8B55"/>
<path d="M82 678C79.446 674.474 77.544 670.541 76.401 666.424C75.911 664.655 75.644 662.549 76.976 661.21C78.256 659.924 80.114 659.949 82 660.034V678Z" fill="#8C8B55"/>
<path d="M81.591 693C81.591 685.264 76.648 679.154 71.701 673.606C66.755 668.058 61.057 662.57 59.399 655.392C58.831 652.932 58.793 650.285 59.788 647.959C60.412 646.5 61.494 645.196 62.844 644.347C64.238 643.47 66.078 644.345 66.251 645.956C66.621 649.427 64.977 653.27 65.509 656.86C66.188 661.443 70.181 664.725 73.204 668.29C79.237 675.404 83.348 684.828 81.591 693Z" fill="#8C8B55"/>
<path d="M76.716 673C73.911 669.509 72.19 665.104 71.86 660.582C71.785 659.562 71.793 658.48 72.282 657.591C72.77 656.703 73.89 656.108 74.785 656.548C75.224 657.905 76.655 658.785 78.037 658.711C79.421 658.638 80.691 657.712 81.383 656.474C82.837 653.871 81.586 650.199 79.032 648.763C76.478 647.325 73.095 648.013 70.952 650.043C68.809 652.075 67.849 655.219 68.019 658.218C68.188 661.217 69.39 664.075 71.008 666.571C72.627 669.067 74.659 671.242 76.716 673Z" fill="#8C8B55"/>
<path d="M82 647.27C80.538 645.205 78.374 643.65 75.954 642.922C75.277 642.719 74.569 642.579 73.867 642.662C73.168 642.744 72.471 643.078 72.301 643.961C73.49 644.568 73.567 646.468 72.577 647.364C71.586 648.261 69.954 648.161 68.881 647.366C67.808 646.572 67.24 645.237 67.067 643.911C66.572 640.087 68.926 636.564 70.311 632.968C72.086 628.355 72.289 623.151 71.144 618.647C74.069 624.369 74.135 631.663 71.995 637.725C73.555 633.054 77.149 632.207 79.196 628.487C82.695 622.139 80.802 614.893 78.309 610.479C75.772 605.984 72.345 602.746 69.272 599.493C72.007 600.359 74.575 601.748 76.698 603.587C76.2 602.125 76.589 600.395 77.666 599.288C78.741 598.179 80.454 597.743 81.944 598.15L82 647.27Z" fill="#8C8B55"/>
<path d="M83 598V694H81V598H83Z" fill="#8C8B55"/>
<path d="M0 0.000475186C0 0.000475186 5.56199 0.00727463 13.33 8.79437C22.667 19.3553 32.892 24.0542 45.556 24.9129C59.591 25.864 71.761 18.9465 76.181 8.07937C80.604 -2.78773 65.958 -1.47232 59.683 4.86008C53.408 11.1926 59.89 18.6044 67.887 12.5867C72.345 9.23228 71.615 3.59087 64.06 5.50497C64.06 5.50497 68.406 1.50398 73.1 2.74928C77.793 3.99288 73.73 13.2931 65.116 18.6968C56.5 24.1021 47.743 23.2622 36.384 19.5041C24.306 15.5083 15.732 9.94388 26.664 0.00387599L0 0.000475186Z" fill="#8C8B55"/>
<path d="M44.362 21.6303C47.607 22.8276 37.614 21.2153 33.68 15.343C29.475 9.0694 27.89 5.7507 24.405 6.3912C23.141 6.6218 22.314 7.9694 22.38 9.2658C22.446 10.5605 23.144 11.7254 23.824 12.8271C22.292 11.1959 21.169 9.1001 21.016 6.8575C20.863 4.6148 21.789 2.2458 23.628 0.980097C25.737 -0.471703 28.092 -0.353903 30.563 1.624C32.564 3.2245 34.185 5.4449 35.806 8.9874C35.806 8.9635 36.63 18.7762 44.362 21.6303Z" fill="#8C8B55"/>
<path d="M35.013 10.0082C35.878 7.71683 37.154 4.50913 41.428 1.56583C43.952 -0.17357 47.475 -0.39307 50.416 0.55813C53.358 1.50933 55.78 4.11003 55.986 7.09493C56.139 9.31813 55.057 11.553 53.294 12.9947C51.8 14.2186 49.787 14.9021 47.844 14.636C45.903 14.3716 44.095 13.0879 43.446 11.3036C43.162 10.5221 43.119 9.59753 43.605 8.91573C44.092 8.23233 45.225 7.97453 45.836 8.55653C46.374 9.07203 46.303 9.94673 46.735 10.547C47.306 11.3435 48.56 11.3718 49.469 10.9627C51.46 10.0664 52.304 7.48733 51.439 5.53843C50.575 3.59123 48.296 2.40893 46.101 2.50873C43.905 2.60683 41.045 4.08843 39.742 5.79453C36.882 9.54263 36.392 12.6422 39.311 18C36.424 15.2463 34.837 13.4903 35.013 10.0082Z" fill="#8C8B55"/>
<path d="M43.388 7.86109C41.411 9.81799 41.594 13.2649 43.357 15.4094C45.119 17.5539 48.075 18.4958 50.882 18.4377C53.691 18.3795 56.4 17.446 59 16.4011C56.149 18.9742 51.314 21.6636 46.794 20.853C43.432 20.2483 40.159 18.3397 38.697 15.3081C37.235 12.2765 38.097 8.13019 41.055 6.44919C41.751 6.05379 42.642 5.80799 43.345 6.19329C44.047 6.57709 44.026 7.34949 43.388 7.86109Z" fill="#8C8B55"/>
<path d="M82 20C79.446 23.5256 77.544 27.4593 76.401 31.5762C75.911 33.3448 75.644 35.4511 76.976 36.7898C78.256 38.0764 80.114 38.0512 82 37.9656V20Z" fill="#8C8B55"/>
<path d="M81.591 5C81.591 12.7359 76.648 18.8457 71.7 24.394C66.755 29.9423 61.057 35.4303 59.399 42.608C58.831 45.0678 58.793 47.7154 59.788 50.0408C60.412 51.4998 61.494 52.8037 62.844 53.6529C64.238 54.5297 66.078 53.6546 66.251 52.0441C66.621 48.5732 64.977 44.7302 65.509 41.1405C66.188 36.5568 70.181 33.2754 73.204 29.7097C79.237 22.5957 83.348 13.1717 81.591 5Z" fill="#8C8B55"/>
<path d="M76.716 25C73.911 28.4915 72.19 32.8956 71.86 37.4183C71.785 38.4376 71.793 39.5196 72.282 40.4085C72.77 41.2975 73.89 41.8918 74.785 41.4516C75.224 40.0953 76.655 39.2148 78.037 39.2893C79.421 39.3621 80.691 40.2883 81.383 41.5261C82.837 44.1286 81.586 47.8012 79.032 49.2371C76.478 50.6747 73.095 49.9872 70.952 47.957C68.809 45.9251 67.849 42.7808 68.019 39.782C68.188 36.7833 69.39 33.9251 71.008 31.4293C72.627 28.9334 74.659 26.7576 76.716 25Z" fill="#8C8B55"/>
<path d="M82 50.73C80.538 52.7952 78.374 54.3504 75.954 55.0776C75.277 55.2812 74.569 55.4215 73.867 55.3377C73.168 55.2555 72.471 54.9219 72.301 54.039C73.49 53.4316 73.567 51.5325 72.577 50.6359C71.586 49.7394 69.954 49.8386 68.881 50.6342C67.808 51.4281 67.24 52.7627 67.067 54.0887C66.572 57.9127 68.926 61.4355 70.311 65.032C72.086 69.6447 72.289 74.8495 71.144 79.3527C74.069 73.6313 74.135 66.3374 71.995 60.2755C73.555 64.9464 77.149 65.7934 79.196 69.513C82.694 75.8607 80.802 83.1066 78.309 87.521C75.772 92.016 72.345 95.254 69.272 98.507C72.007 97.641 74.575 96.252 76.698 94.413C76.2 95.875 76.589 97.605 77.666 98.712C78.741 99.821 80.454 100.257 81.944 99.85L82 50.73Z" fill="#8C8B55"/>
<path d="M83 100V4H81V100H83Z" fill="#8C8B55"/>
</svg>
