<svg width="224" height="40" viewBox="0 0 224 40" fill="none" xmlns="http://www.w3.org/2000/svg">
<path d="M21.0207 0.280026H26.3207V1.12003H25.2207V6.36003H25.3607L26.6407 3.76003C27.294 2.42669 27.7474 1.60003 28.0007 1.28003C28.6674 0.426692 29.4474 2.56481e-05 30.3407 2.56481e-05H30.7407C30.954 2.56481e-05 31.2474 0.0533591 31.6207 0.160026C31.714 0.186692 31.8674 0.253359 32.0807 0.360026C32.0674 0.426692 32.0007 0.613359 31.8807 0.920026L31.7007 1.38003C31.6474 1.51336 31.6007 1.88669 31.5607 2.50003L31.5207 3.10003H31.1207L30.1807 2.72003C29.9807 2.64003 29.7274 2.60003 29.4207 2.60003C28.7674 2.60003 28.094 3.14669 27.4007 4.24003C27.1474 4.65336 26.734 5.46669 26.1607 6.68003C28.2807 6.97336 29.8274 7.86669 30.8007 9.36003C31.5074 10.44 31.8607 11.8 31.8607 13.44H33.0807V14.28H27.4007V13.44H28.3407C28.3407 9.52003 27.3007 7.44003 25.2207 7.20003V13.44H26.2407V14.28H21.1007V13.44H22.1207V7.20003C20.9207 7.30669 20.054 8.12003 19.5207 9.64003C19.174 10.6667 19.0007 11.9334 19.0007 13.44H19.9407V14.28H14.2607V13.44H15.4807C15.4807 11.5467 15.9674 10.02 16.9407 8.86003C17.9274 7.68669 19.3407 6.96003 21.1807 6.68003C20.6074 5.42669 20.194 4.60669 19.9407 4.22003C19.2607 3.14003 18.5874 2.60003 17.9207 2.60003C17.5207 2.60003 17.1674 2.68003 16.8607 2.84003L16.2207 3.10003H15.8207L15.7807 2.50003L15.7607 1.72003L15.4407 0.900026L15.2607 0.360026C15.8074 0.120026 16.3874 2.56481e-05 17.0007 2.56481e-05C18.0274 2.56481e-05 18.934 0.620026 19.7207 1.86003L20.7007 3.76003L21.9807 6.36003H22.1207V1.12003H21.0207V0.280026ZM39.7631 14.3H38.2431C36.8831 14.3 36.2031 14.8134 36.2031 15.84C36.2031 16.4667 36.3831 17.1534 36.7431 17.9L35.7231 18.04C35.2297 16.8667 34.7164 15.9267 34.1831 15.22L33.7831 14.56C33.6764 14.3867 33.6231 14.1934 33.6231 13.98C33.6231 13.7667 33.8097 13.62 34.1831 13.54H34.5631C35.0964 13.54 35.4764 13.3867 35.7031 13.08C36.0631 12.6 36.5097 11.5134 37.0431 9.82003C37.5764 8.12669 37.8431 6.97336 37.8431 6.36003V6.14003C37.8431 5.92669 37.7764 5.72003 37.6431 5.52003C37.5631 5.36003 37.5231 5.22003 37.5231 5.10003C37.5764 5.02003 37.6231 4.98003 37.6631 4.98003L37.9831 4.94003L39.1831 4.98003L40.2231 4.96003C40.3164 4.96003 40.4564 4.94669 40.6431 4.92003C40.8297 4.92003 40.9431 4.94669 40.9831 5.00003C41.0231 5.05336 41.0431 5.18003 41.0431 5.38003C41.0431 6.14003 41.2364 7.21336 41.6231 8.60003C41.6631 8.73336 41.7631 9.04669 41.9231 9.54003C42.4964 11.38 42.9297 12.5534 43.2231 13.06C43.4231 13.3934 43.6564 13.56 43.9231 13.56L44.1031 13.54C44.4897 13.54 44.6831 13.6867 44.6831 13.98C44.6831 14.1667 44.6364 14.34 44.5431 14.5C44.4631 14.66 44.3364 14.8734 44.1631 15.14L43.5231 16.1C43.2697 16.4867 42.9497 17.1334 42.5631 18.04L41.5431 17.9L41.9031 16.78C42.0231 16.4067 42.0831 16.0934 42.0831 15.84C42.0831 14.8134 41.3097 14.3 39.7631 14.3ZM36.3631 13.62H40.9031L40.5631 12.96L40.2231 12.1C39.6497 10.66 39.2431 9.17336 39.0031 7.64003L38.8631 6.76003H38.5631C38.4164 7.66669 38.2364 8.45336 38.0231 9.12003L37.4831 10.8L36.8231 12.6C36.6631 13.0534 36.5097 13.3934 36.3631 13.62ZM53.9177 5.88003L54.4377 6.50003C53.7444 6.96669 53.1244 7.20003 52.5777 7.20003C52.0311 7.20003 51.4511 6.85336 50.8377 6.16003C50.6377 5.93336 50.4844 5.77336 50.3777 5.68003C50.1777 5.50669 49.9844 5.42003 49.7977 5.42003C49.0511 5.42003 48.5777 6.13336 48.3777 7.56003C48.2977 8.13336 48.2577 8.78669 48.2577 9.52003C48.5777 9.26669 49.0044 9.02003 49.5377 8.78003C50.1244 8.51336 50.5844 8.38003 50.9177 8.38003C51.3711 8.38003 51.8977 8.56669 52.4977 8.94003C52.7111 9.07336 52.8844 9.14003 53.0177 9.14003C53.2844 9.14003 53.5377 9.03336 53.7777 8.82003L54.1777 9.36003C53.8177 9.76003 53.4577 10.0934 53.0977 10.36C52.6844 10.6667 52.3311 10.82 52.0377 10.82C51.7577 10.82 51.4444 10.7067 51.0977 10.48C50.4711 10.0667 49.9777 9.86003 49.6177 9.86003C49.1911 9.86003 48.7444 10.0534 48.2777 10.44C48.2777 11.4134 48.4911 12.2267 48.9177 12.88C49.4244 13.6534 50.1377 14.04 51.0577 14.04C51.8177 14.04 52.6777 13.6934 53.6377 13L54.0177 13.42C53.0577 14.4467 51.8577 14.96 50.4177 14.96C49.2044 14.96 48.1644 14.6667 47.2977 14.08C46.0711 13.2534 45.4577 11.9667 45.4577 10.22V9.54003C45.4577 8.46003 45.7911 7.44003 46.4577 6.48003C47.2844 5.29336 48.3777 4.70003 49.7377 4.70003C50.3511 4.70003 50.9644 4.82669 51.5777 5.08003C51.8977 5.21336 52.2844 5.42003 52.7377 5.70003C53.0444 5.92669 53.2911 6.04003 53.4777 6.04003C53.6511 6.04003 53.7977 5.98669 53.9177 5.88003ZM47.3377 1.28003H48.0177L49.0977 1.26003C49.1911 1.26003 49.2577 1.28669 49.2977 1.34003C49.3377 1.39336 49.3577 1.46669 49.3577 1.56003L49.3177 2.52003L49.3577 3.44003C49.3711 3.62669 49.2844 3.73336 49.0977 3.76003H48.8777L48.0177 3.72003L47.3377 3.74003C47.0977 3.75336 46.9511 3.64003 46.8977 3.40003C46.8844 3.33336 46.8777 3.12003 46.8777 2.76003C46.8777 2.68003 46.8777 2.55336 46.8777 2.38003C46.8644 2.20669 46.8577 2.08003 46.8577 2.00003V1.76003C46.8577 1.44003 47.0177 1.28003 47.3377 1.28003ZM51.0177 1.28003H51.6977L52.7577 1.26003C52.8511 1.26003 52.9177 1.28669 52.9577 1.34003C52.9977 1.39336 53.0177 1.46669 53.0177 1.56003L52.9777 2.52003L53.0177 3.44003C53.0311 3.62669 52.9444 3.73336 52.7577 3.76003H52.5377L51.6977 3.72003L51.0177 3.74003C50.7777 3.75336 50.6311 3.64003 50.5777 3.40003C50.5644 3.33336 50.5577 3.12003 50.5577 2.76003C50.5577 2.68003 50.5577 2.55336 50.5577 2.38003C50.5444 2.20669 50.5377 2.08003 50.5377 2.00003V1.76003C50.5377 1.44003 50.6977 1.28003 51.0177 1.28003ZM58.4387 4.98003H59.9987C60.3187 4.98003 60.512 5.10003 60.5787 5.34003C60.6053 5.60669 60.6387 5.88003 60.6787 6.16003C60.7453 6.77336 60.912 7.67336 61.1787 8.86003L61.5387 10.46C61.6187 10.78 61.732 11.1934 61.8787 11.7C61.9987 10.9 62.1787 10.2067 62.4187 9.62003L62.8987 8.44003C63.2587 7.56003 63.4387 7.05336 63.4387 6.92003V6.12003C63.3987 5.90669 63.372 5.76003 63.3587 5.68003L63.2787 5.10003C63.2787 5.02003 63.432 4.98003 63.7387 4.98003H65.3787C65.7387 4.98003 65.932 5.09336 65.9587 5.32003C65.9587 6.10669 66.012 6.84003 66.1187 7.52003C66.132 7.61336 66.2453 8.13336 66.4587 9.08003C66.7653 10.44 67.272 11.86 67.9787 13.34L68.0987 13.68L68.1587 14C68.1587 14.1334 68.1253 14.22 68.0587 14.26L67.7187 14.28H66.3587C65.7987 14.28 65.212 13.26 64.5987 11.22C64.3587 10.4467 64.172 9.70669 64.0387 9.00003L63.8787 8.18003C62.9453 10.18 62.4787 11.9067 62.4787 13.36V13.8L62.4987 14.02C62.4987 14.1667 62.4387 14.2534 62.3187 14.28H60.7787C60.5387 14.28 60.3587 14.22 60.2387 14.1C60.0253 13.8067 59.7053 12.7867 59.2787 11.04C59.0253 9.97336 58.7653 8.76669 58.4987 7.42003C57.2987 8.90003 56.6987 10.4267 56.6987 12C56.6987 12.3734 56.7387 12.6734 56.8187 12.9L57.2587 14.16C57.2587 14.24 57.1853 14.28 57.0387 14.28H55.2987C55.0853 14.28 54.9787 13.98 54.9787 13.38C54.9787 12.2734 55.5587 10.7734 56.7187 8.88003C57.5987 7.45336 58.0187 6.50003 57.9787 6.02003L57.9587 5.78003L57.9187 5.44003L57.9587 5.20003C57.9987 5.09336 58.0453 5.03336 58.0987 5.02003L58.4387 4.98003ZM77.4185 4.98003H82.2185C82.7785 4.98003 83.1519 5.00003 83.3385 5.04003C83.8585 5.16003 84.1185 5.52003 84.1185 6.12003C84.1185 6.84003 83.7519 7.46003 83.0185 7.98003C82.5252 8.32669 81.6985 8.68003 80.5385 9.04003V9.16003C81.7519 9.44003 82.7452 9.84003 83.5185 10.36C84.5985 11.0667 85.1385 11.9267 85.1385 12.94C85.1385 13.5 84.9652 13.8734 84.6185 14.06C84.3652 14.2067 83.9385 14.28 83.3385 14.28H77.2185C76.8452 14.28 76.6252 13.7667 76.5585 12.74C76.5719 12.8867 76.5785 12.2534 76.5785 10.84C76.5785 8.16003 76.6252 6.51336 76.7185 5.90003C76.8119 5.28669 77.0452 4.98003 77.4185 4.98003ZM79.0385 8.66003C79.6652 8.66003 80.2319 8.44669 80.7385 8.02003C81.2452 7.59336 81.4985 7.07336 81.4985 6.46003C81.4985 5.88669 81.0452 5.62003 80.1385 5.66003L79.6585 5.68003H79.1785C79.0852 6.77336 79.0385 7.76669 79.0385 8.66003ZM79.0585 13.56L80.3185 13.6C80.9985 13.6267 81.4719 13.5734 81.7385 13.44C82.0585 13.2934 82.2185 12.9534 82.2185 12.42C82.2185 11.78 81.9452 11.1534 81.3985 10.54C80.7452 9.80669 79.9585 9.44003 79.0385 9.44003L78.9985 11.1L79.0585 13.56ZM90.7254 4.98003H92.7654C92.8854 4.98003 92.9654 5.02003 93.0054 5.10003V5.40003C93.0054 5.46669 93.0521 5.68003 93.1454 6.04003L93.6054 7.78003C93.8854 8.86003 94.2921 10.3 94.8254 12.1L95.5454 14.1C95.5454 14.1667 95.4987 14.22 95.4054 14.26L95.1454 14.28H93.1054C93.0387 14.28 92.9654 14.1734 92.8854 13.96L92.6254 12.92L92.3854 12.16L92.1254 11.26C91.4987 13.42 90.4454 14.5 88.9654 14.5C88.2054 14.5 87.6387 14.1867 87.2654 13.56C86.9721 13.0667 86.8254 12.5134 86.8254 11.9C86.8254 11.26 87.1454 10.4734 87.7854 9.54003C88.1187 9.06003 88.6321 8.44003 89.3254 7.68003L90.1854 6.74003C90.3854 6.52669 90.4987 6.34003 90.5254 6.18003L90.4854 5.88003L90.3854 5.50003L90.3254 5.10003C90.3787 5.03336 90.4321 5.00003 90.4854 5.00003L90.7254 4.98003ZM90.8854 6.96003C89.5521 8.38669 88.8854 9.60669 88.8854 10.62C88.8854 10.9934 88.9854 11.3134 89.1854 11.58C89.3987 11.8467 89.6921 11.98 90.0654 11.98C90.5187 11.98 90.9121 11.82 91.2454 11.5C91.5921 11.18 91.7654 10.8 91.7654 10.36C91.7654 10.1067 91.6587 9.62003 91.4454 8.90003L91.1854 8.02003C91.1321 7.72669 91.0321 7.37336 90.8854 6.96003ZM102.806 11L103.466 11.52C103.146 12.2 102.706 12.8867 102.146 13.58C101.413 14.5 100.786 14.96 100.266 14.96C99.493 14.96 98.7063 14.2267 97.9063 12.76C97.1863 11.4267 96.8263 10.3267 96.8263 9.46003C96.8263 8.34003 97.2397 7.17336 98.0663 5.96003C98.8263 4.84003 99.493 4.28003 100.066 4.28003C100.426 4.28003 101.04 4.50669 101.906 4.96003C102.826 5.44003 103.286 5.83336 103.286 6.14003C103.286 6.27336 103.1 6.53336 102.726 6.92003C102.46 7.18669 102.26 7.43336 102.126 7.66003C102.086 7.72669 102.02 7.81336 101.926 7.92003C101.913 7.94669 101.886 7.98003 101.846 8.02003C101.673 7.82003 101.406 7.52669 101.046 7.14003C100.9 6.99336 100.766 6.86669 100.646 6.76003C100.233 6.45336 99.7063 6.22669 99.0663 6.08003L98.8263 6.88003C98.7597 7.28003 98.7263 7.59336 98.7263 7.82003C98.7263 8.72669 99.0063 9.64669 99.5663 10.58C100.153 11.5667 100.853 12.2134 101.666 12.52L102.106 12.04L102.806 11ZM118.138 11L118.798 11.52C118.478 12.2 118.038 12.8867 117.478 13.58C116.745 14.5 116.118 14.96 115.598 14.96C114.825 14.96 114.038 14.2267 113.238 12.76C112.518 11.4267 112.158 10.3267 112.158 9.46003C112.158 8.34003 112.572 7.17336 113.398 5.96003C114.158 4.84003 114.825 4.28003 115.398 4.28003C115.758 4.28003 116.372 4.50669 117.238 4.96003C118.158 5.44003 118.618 5.83336 118.618 6.14003C118.618 6.27336 118.432 6.53336 118.058 6.92003C117.792 7.18669 117.592 7.43336 117.458 7.66003C117.418 7.72669 117.352 7.81336 117.258 7.92003C117.245 7.94669 117.218 7.98003 117.178 8.02003C117.005 7.82003 116.738 7.52669 116.378 7.14003C116.232 6.99336 116.098 6.86669 115.978 6.76003C115.565 6.45336 115.038 6.22669 114.398 6.08003L114.158 6.88003C114.092 7.28003 114.058 7.59336 114.058 7.82003C114.058 8.72669 114.338 9.64669 114.898 10.58C115.485 11.5667 116.185 12.2134 116.998 12.52L117.438 12.04L118.138 11ZM130.95 6.54003L130.69 7.30003L130.37 8.00003C129.624 9.64003 129.25 10.9 129.25 11.78C129.25 12.26 129.297 12.6134 129.39 12.84C129.404 12.88 129.47 13.0267 129.59 13.28L129.89 13.78C129.97 13.8867 130.01 13.98 130.01 14.06C130.01 14.22 129.884 14.3 129.63 14.3L128.57 14.28L127.63 14.32C127.35 14.3334 127.17 14.3 127.09 14.22C127.024 14.1267 126.99 13.9334 126.99 13.64C126.99 12.8667 127.224 12.0067 127.69 11.06C127.877 10.6867 128.37 9.86669 129.17 8.60003L129.97 7.34003C130.317 6.79336 130.49 6.34669 130.49 6.00003C130.49 5.84003 130.45 5.64003 130.37 5.40003V5.16003C130.41 5.04003 130.544 4.98003 130.77 4.98003H132.57C132.877 4.98003 133.07 5.02003 133.15 5.10003L133.19 5.50003C133.19 5.98003 133.317 6.67336 133.57 7.58003L134.05 9.30003C134.29 10.18 134.664 11.2467 135.17 12.5L135.77 14C135.77 14.2 135.657 14.3 135.43 14.3L135.21 14.28L134.39 14.26L133.59 14.28C133.284 14.2934 133.064 14.16 132.93 13.88C132.704 13.4267 132.364 12.32 131.91 10.56L131.23 7.90003L131.09 7.20003L130.95 6.54003ZM139.504 9.02003H141.684C141.884 7.74003 142.431 6.59336 143.324 5.58003C144.084 4.71336 144.704 4.28003 145.184 4.28003C145.811 4.28003 146.524 4.65336 147.324 5.40003C148.378 6.37336 148.904 7.59336 148.904 9.06003C148.904 10.0334 148.544 11.2134 147.824 12.6C147.011 14.1734 146.171 14.96 145.304 14.96C144.624 14.96 143.864 14.46 143.024 13.46C142.078 12.3267 141.604 11.12 141.604 9.84003H139.504V10.96C139.544 11.28 139.571 11.5 139.584 11.62L139.784 13.7C139.784 14.0067 139.678 14.1867 139.464 14.24C139.398 14.2667 139.151 14.28 138.724 14.28H137.784C137.384 14.28 137.144 13.46 137.064 11.82C137.078 12.0467 137.084 11.0934 137.084 8.96003C137.084 7.33336 137.078 6.60003 137.064 6.76003C137.144 5.54669 137.384 4.94669 137.784 4.96003L138.384 4.98003H139.004L139.284 4.94003H139.504C139.664 4.98003 139.751 5.09336 139.764 5.28003L139.584 6.96003L139.504 9.02003ZM143.744 6.52003L143.404 7.04003C143.284 7.32003 143.191 7.68003 143.124 8.12003V8.74003C143.204 9.60669 143.538 10.4134 144.124 11.16C144.858 12.1067 145.698 12.5534 146.644 12.5L147.004 12.48C147.244 12.0134 147.364 11.5267 147.364 11.02C147.364 10.0734 147.084 9.16669 146.524 8.30003C145.858 7.27336 144.931 6.68003 143.744 6.52003ZM154.776 5.66003H153.516L153.376 7.14003L153.296 9.14003C154.096 9.14003 154.896 9.23336 155.696 9.42003C157.243 9.78003 158.31 10.62 158.896 11.94C159.136 12.4867 159.256 13.0134 159.256 13.52C159.256 13.92 159.096 14.16 158.776 14.24L158.116 14.28H151.436C151.063 14.28 150.87 13.9867 150.856 13.4C150.843 13.1067 150.836 12.9134 150.836 12.82L150.876 10.08L150.976 7.14003C150.976 7.14003 150.976 6.81336 150.976 6.16003C150.976 5.90669 150.99 5.67336 151.016 5.46003C151.016 5.14003 151.223 4.98003 151.636 4.98003L158.476 4.90003C159.103 4.87336 159.416 5.02669 159.416 5.36003C159.416 5.49336 159.37 5.65336 159.276 5.84003L158.956 6.48003C158.903 6.60003 158.63 7.22003 158.136 8.34003L157.216 8.30003L157.296 7.44003V6.80003C157.243 6.26669 156.923 5.92669 156.336 5.78003C156.056 5.70003 155.536 5.66003 154.776 5.66003ZM153.276 13.6H156.476L156.516 13.26V12.96C156.516 11.0134 155.443 10.04 153.296 10.04L153.256 10.48L153.276 13.6ZM161.044 10.22C161.044 8.68669 161.524 7.26669 162.484 5.96003C163.31 4.84003 164.024 4.28003 164.624 4.28003C165.277 4.28003 166.004 4.65336 166.804 5.40003C167.83 6.36003 168.344 7.58003 168.344 9.06003C168.344 10.0334 167.977 11.22 167.244 12.62C166.43 14.18 165.59 14.96 164.724 14.96C163.884 14.96 163.05 14.3734 162.224 13.2C161.437 12.0934 161.044 11.1 161.044 10.22ZM163.084 6.52003C162.67 7.06669 162.464 7.60003 162.464 8.12003C162.464 9.04003 162.737 9.94003 163.284 10.82C164.017 11.9934 164.91 12.5534 165.964 12.5L166.364 12.48C166.484 12.2667 166.57 12.0334 166.624 11.78L166.704 11.02C166.704 9.88669 166.384 8.90003 165.744 8.06003C165.064 7.18003 164.177 6.66669 163.084 6.52003ZM171.071 4.98003H175.871C176.431 4.98003 176.804 5.00003 176.991 5.04003C177.511 5.16003 177.771 5.52003 177.771 6.12003C177.771 6.84003 177.404 7.46003 176.671 7.98003C176.178 8.32669 175.351 8.68003 174.191 9.04003V9.16003C175.404 9.44003 176.398 9.84003 177.171 10.36C178.251 11.0667 178.791 11.9267 178.791 12.94C178.791 13.5 178.618 13.8734 178.271 14.06C178.018 14.2067 177.591 14.28 176.991 14.28H170.871C170.498 14.28 170.278 13.7667 170.211 12.74C170.224 12.8867 170.231 12.2534 170.231 10.84C170.231 8.16003 170.278 6.51336 170.371 5.90003C170.464 5.28669 170.698 4.98003 171.071 4.98003ZM172.691 8.66003C173.318 8.66003 173.884 8.44669 174.391 8.02003C174.898 7.59336 175.151 7.07336 175.151 6.46003C175.151 5.88669 174.698 5.62003 173.791 5.66003L173.311 5.68003H172.831C172.738 6.77336 172.691 7.76669 172.691 8.66003ZM172.711 13.56L173.971 13.6C174.651 13.6267 175.124 13.5734 175.391 13.44C175.711 13.2934 175.871 12.9534 175.871 12.42C175.871 11.78 175.598 11.1534 175.051 10.54C174.398 9.80669 173.611 9.44003 172.691 9.44003L172.651 11.1L172.711 13.56ZM186.638 14.28H181.478C181.011 14.28 180.778 14.02 180.778 13.5V10.84C180.778 12.2267 180.758 11.62 180.718 9.02003C180.704 7.88669 180.751 6.98669 180.858 6.32003C180.991 5.40003 181.238 4.94669 181.598 4.96003L182.198 4.98003H182.838L183.118 4.94003H183.338C183.498 4.94003 183.584 5.04669 183.598 5.26003L183.518 5.66003C183.398 6.23336 183.331 6.75336 183.318 7.22003L183.258 8.72003V9.14003C184.951 9.14003 186.318 9.55336 187.358 10.38C188.398 11.1934 188.918 12.2334 188.918 13.5C188.918 13.8734 188.784 14.12 188.518 14.24C188.358 14.2934 188.111 14.32 187.778 14.32H187.438L187.098 14.3L186.638 14.28ZM183.258 13.6L185.878 13.58L185.898 12.94C185.911 12.34 185.778 11.8067 185.498 11.34C185.071 10.6334 184.318 10.2 183.238 10.04C183.238 10.2 183.224 10.3267 183.198 10.42V11.1L183.218 12.68L183.258 13.6ZM193.45 9.02003H195.63C195.83 7.74003 196.376 6.59336 197.27 5.58003C198.03 4.71336 198.65 4.28003 199.13 4.28003C199.756 4.28003 200.47 4.65336 201.27 5.40003C202.323 6.37336 202.85 7.59336 202.85 9.06003C202.85 10.0334 202.49 11.2134 201.77 12.6C200.956 14.1734 200.116 14.96 199.25 14.96C198.57 14.96 197.81 14.46 196.97 13.46C196.023 12.3267 195.55 11.12 195.55 9.84003H193.45V10.96C193.49 11.28 193.516 11.5 193.53 11.62L193.73 13.7C193.73 14.0067 193.623 14.1867 193.41 14.24C193.343 14.2667 193.096 14.28 192.67 14.28H191.73C191.33 14.28 191.09 13.46 191.01 11.82C191.023 12.0467 191.03 11.0934 191.03 8.96003C191.03 7.33336 191.023 6.60003 191.01 6.76003C191.09 5.54669 191.33 4.94669 191.73 4.96003L192.33 4.98003H192.95L193.23 4.94003H193.45C193.61 4.98003 193.696 5.09336 193.71 5.28003L193.53 6.96003L193.45 9.02003ZM197.69 6.52003L197.35 7.04003C197.23 7.32003 197.136 7.68003 197.07 8.12003V8.74003C197.15 9.60669 197.483 10.4134 198.07 11.16C198.803 12.1067 199.643 12.5534 200.59 12.5L200.95 12.48C201.19 12.0134 201.31 11.5267 201.31 11.02C201.31 10.0734 201.03 9.16669 200.47 8.30003C199.803 7.27336 198.876 6.68003 197.69 6.52003ZM6.14 34.3H4.62C3.26 34.3 2.58 34.8134 2.58 35.84C2.58 36.4667 2.76 37.1534 3.12 37.9L2.1 38.04C1.60667 36.8667 1.09333 35.9267 0.56 35.22L0.16 34.56C0.0533333 34.3867 0 34.1934 0 33.98C0 33.7667 0.186667 33.62 0.56 33.54H0.94C1.47333 33.54 1.85333 33.3867 2.08 33.08C2.44 32.6 2.88667 31.5134 3.42 29.82C3.95333 28.1267 4.22 26.9734 4.22 26.36V26.14C4.22 25.9267 4.15333 25.72 4.02 25.52C3.94 25.36 3.9 25.22 3.9 25.1C3.95333 25.02 4 24.98 4.04 24.98L4.36 24.94L5.56 24.98L6.6 24.96C6.69333 24.96 6.83333 24.9467 7.02 24.92C7.20667 24.92 7.32 24.9467 7.36 25C7.4 25.0534 7.42 25.18 7.42 25.38C7.42 26.14 7.61334 27.2134 8 28.6C8.04 28.7334 8.14 29.0467 8.3 29.54C8.87334 31.38 9.30667 32.5534 9.6 33.06C9.8 33.3934 10.0333 33.56 10.3 33.56L10.48 33.54C10.8667 33.54 11.06 33.6867 11.06 33.98C11.06 34.1667 11.0133 34.34 10.92 34.5C10.84 34.66 10.7133 34.8734 10.54 35.14L9.9 36.1C9.64667 36.4867 9.32667 37.1334 8.94 38.04L7.92 37.9L8.28 36.78C8.4 36.4067 8.46 36.0934 8.46 35.84C8.46 34.8134 7.68667 34.3 6.14 34.3ZM2.74 33.62H7.28L6.94 32.96L6.6 32.1C6.02667 30.66 5.62 29.1734 5.38 27.64L5.24 26.76H4.94C4.79333 27.6667 4.61333 28.4534 4.4 29.12L3.86 30.8L3.2 32.6C3.04 33.0534 2.88667 33.3934 2.74 33.62ZM15.7547 24.98H17.7947C17.9147 24.98 17.9947 25.02 18.0347 25.1V25.4C18.0347 25.4667 18.0814 25.68 18.1747 26.04L18.6347 27.78C18.9147 28.86 19.3214 30.3 19.8547 32.1L20.5747 34.1C20.5747 34.1667 20.528 34.22 20.4347 34.26L20.1747 34.28H18.1347C18.068 34.28 17.9947 34.1734 17.9147 33.96L17.6547 32.92L17.4147 32.16L17.1547 31.26C16.528 33.42 15.4747 34.5 13.9947 34.5C13.2347 34.5 12.668 34.1867 12.2947 33.56C12.0014 33.0667 11.8547 32.5134 11.8547 31.9C11.8547 31.26 12.1747 30.4734 12.8147 29.54C13.148 29.06 13.6614 28.44 14.3547 27.68L15.2147 26.74C15.4147 26.5267 15.528 26.34 15.5547 26.18L15.5147 25.88L15.4147 25.5L15.3547 25.1C15.408 25.0334 15.4614 25 15.5147 25L15.7547 24.98ZM15.9147 26.96C14.5814 28.3867 13.9147 29.6067 13.9147 30.62C13.9147 30.9934 14.0147 31.3134 14.2147 31.58C14.428 31.8467 14.7214 31.98 15.0947 31.98C15.548 31.98 15.9414 31.82 16.2747 31.5C16.6214 31.18 16.7947 30.8 16.7947 30.36C16.7947 30.1067 16.688 29.62 16.4747 28.9L16.2147 28.02C16.1614 27.7267 16.0614 27.3734 15.9147 26.96ZM34.8474 31L35.5074 31.52C35.1874 32.2 34.7474 32.8867 34.1874 33.58C33.454 34.5 32.8274 34.96 32.3074 34.96C31.534 34.96 30.7474 34.2267 29.9474 32.76C29.2274 31.4267 28.8674 30.3267 28.8674 29.46C28.8674 28.34 29.2807 27.1734 30.1074 25.96C30.8674 24.84 31.534 24.28 32.1074 24.28C32.4674 24.28 33.0807 24.5067 33.9474 24.96C34.8674 25.44 35.3274 25.8334 35.3274 26.14C35.3274 26.2734 35.1407 26.5334 34.7674 26.92C34.5007 27.1867 34.3007 27.4334 34.1674 27.66C34.1274 27.7267 34.0607 27.8134 33.9674 27.92C33.954 27.9467 33.9274 27.98 33.8874 28.02C33.714 27.82 33.4474 27.5267 33.0874 27.14C32.9407 26.9934 32.8074 26.8667 32.6874 26.76C32.274 26.4534 31.7474 26.2267 31.1074 26.08L30.8674 26.88C30.8007 27.28 30.7674 27.5934 30.7674 27.82C30.7674 28.7267 31.0474 29.6467 31.6074 30.58C32.194 31.5667 32.894 32.2134 33.7074 32.52L34.1474 32.04L34.8474 31ZM44.1394 30.22C44.1394 28.6867 44.6194 27.2667 45.5794 25.96C46.4061 24.84 47.1194 24.28 47.7194 24.28C48.3727 24.28 49.0994 24.6534 49.8994 25.4C50.9261 26.36 51.4394 27.58 51.4394 29.06C51.4394 30.0334 51.0727 31.22 50.3394 32.62C49.5261 34.18 48.6861 34.96 47.8194 34.96C46.9794 34.96 46.1461 34.3734 45.3194 33.2C44.5327 32.0934 44.1394 31.1 44.1394 30.22ZM46.1794 26.52C45.766 27.0667 45.5594 27.6 45.5594 28.12C45.5594 29.04 45.8327 29.94 46.3794 30.82C47.1127 31.9934 48.0061 32.5534 49.0594 32.5L49.4594 32.48C49.5794 32.2667 49.6661 32.0334 49.7194 31.78L49.7994 31.02C49.7994 29.8867 49.4794 28.9 48.8394 28.06C48.1594 27.18 47.2727 26.6667 46.1794 26.52ZM63.2266 28.74L62.1866 28.56L62.3666 27.98L62.4466 27.42C62.4466 26.2334 61.6599 25.64 60.0866 25.64H59.7266L59.7066 27.52L59.6666 28.88L59.7066 31.14L59.8066 33.72C59.8199 33.96 59.7932 34.1134 59.7266 34.18C59.6199 34.3 59.3799 34.36 59.0066 34.36H57.8266C57.5732 34.36 57.4132 34.2467 57.3466 34.02C57.3066 33.9267 57.2799 33.7067 57.2666 33.36C57.2399 32.9467 57.2332 32.52 57.2466 32.08L57.2666 30.84V29.98L57.3066 27.7L57.3666 25.64H57.0066C55.4332 25.64 54.6466 26.2334 54.6466 27.42L54.7266 27.94L54.9066 28.56L53.8666 28.74C53.6266 27.9934 53.3866 27.4134 53.1466 27C53.0532 26.8534 52.9066 26.64 52.7066 26.36L52.4666 25.94C52.4266 25.8467 52.3932 25.6867 52.3666 25.46C52.3666 25.2867 52.4199 25.1267 52.5266 24.98C52.6466 24.8334 52.7866 24.7534 52.9466 24.74L54.2066 24.9L55.3466 24.98L62.2666 24.96C62.5199 24.9467 62.7132 24.9267 62.8466 24.9L63.5066 24.8L64.1466 24.74C64.3066 24.74 64.4399 24.8067 64.5466 24.94C64.6666 25.0734 64.7266 25.2467 64.7266 25.46C64.7266 25.6334 64.6999 25.78 64.6466 25.9L64.3866 26.36C64.1332 26.72 63.8999 27.1067 63.6866 27.52L63.2266 28.74ZM68.3433 29.24H68.5033C70.1433 26.2534 71.6366 24.76 72.9833 24.76C73.53 24.76 73.8166 24.8667 73.8433 25.08L73.4433 25.92C73.35 26.1067 73.29 26.5134 73.2633 27.14L73.2433 27.56L72.7233 27.58C72.6433 27.3934 72.5166 27.2467 72.3433 27.14C72.17 27.02 71.99 26.96 71.8033 26.96C71.4833 26.96 71.11 27.1334 70.6833 27.48C70.3633 27.7467 69.9766 28.2 69.5233 28.84L69.1033 29.44C70.8366 29.92 72.1366 30.7334 73.0033 31.88C73.6033 32.6667 73.9033 33.4 73.9033 34.08C73.9033 34.28 73.7633 34.3734 73.4833 34.36L73.1633 34.34L72.4433 34.28C72.2966 34.2667 72.0633 34.28 71.7433 34.32L71.4033 34.36C71.2833 34.36 71.1966 34.3067 71.1433 34.2L70.9833 33.5C70.7566 32.5267 70.4633 31.7867 70.1033 31.28C69.6366 30.6267 69.05 30.18 68.3433 29.94L68.4033 31.82L68.5633 33.92C68.5633 34.0267 68.49 34.1134 68.3433 34.18C68.1966 34.2467 67.9566 34.28 67.6233 34.28H66.6833C66.2833 34.28 66.0566 33.9267 66.0033 33.22C65.95 32.5934 65.9233 31.1734 65.9233 28.96C65.9233 27.44 65.9233 26.7 65.9233 26.74C66.0033 25.5134 66.2566 24.9134 66.6833 24.94L67.2033 24.98L68.2033 24.92H68.4233C68.5833 24.96 68.6633 25.0667 68.6633 25.24C68.6633 25.2134 68.63 25.4734 68.5633 26.02L68.4033 27.34C68.3633 27.6734 68.3433 28.3067 68.3433 29.24ZM77.2174 32.84L77.2974 33.52L77.3974 34.68L77.4774 36.72C77.5174 37.6267 77.404 38.32 77.1374 38.8C76.9107 39.2 76.604 39.4 76.2174 39.4C75.964 39.4 75.8107 39.3334 75.7574 39.2V39.08L75.7774 38.6L75.7574 35.76C75.7574 35.76 75.7574 35.6134 75.7574 35.32C75.7174 35.0534 75.6907 34.8734 75.6774 34.78L75.3974 31.82L75.3174 30.06C75.2507 28.5667 75.7574 27.16 76.8374 25.84C77.6774 24.8134 78.424 24.3 79.0774 24.3C79.7707 24.3 80.5174 24.9134 81.3174 26.14C82.2107 27.5134 82.6574 28.98 82.6574 30.54C82.6574 31.5534 82.444 32.44 82.0174 33.2C81.5107 34.12 80.7907 34.58 79.8574 34.58C79.3374 34.58 78.8307 34.4134 78.3374 34.08C77.8574 33.7334 77.484 33.32 77.2174 32.84ZM77.7774 26.18C77.2174 26.9934 76.9374 28.0267 76.9374 29.28C76.9374 30.44 77.2374 31.44 77.8374 32.28C78.3574 33 78.8907 33.36 79.4374 33.36C80.1574 33.36 80.5174 32.8467 80.5174 31.82V31.08C80.5174 30.24 80.2374 29.3067 79.6774 28.28C79.1307 27.24 78.4974 26.54 77.7774 26.18ZM90.6514 34.28H85.4914C85.0248 34.28 84.7914 34.02 84.7914 33.5V30.86C84.7914 32.2334 84.7714 31.6267 84.7314 29.04C84.7181 27.8934 84.7648 26.9867 84.8714 26.32C85.0048 25.4 85.2514 24.9467 85.6114 24.96L86.2114 24.98H86.8514L87.1314 24.94H87.3514C87.5114 24.94 87.5981 25.0467 87.6114 25.26L87.5314 25.66C87.4114 26.06 87.3448 26.58 87.3314 27.22L87.3114 28.86C87.2848 28.9934 87.2714 29.0867 87.2714 29.14C88.9648 29.14 90.3314 29.5534 91.3714 30.38C92.4114 31.1934 92.9314 32.2334 92.9314 33.5C92.9314 33.8734 92.7981 34.12 92.5314 34.24C92.3714 34.2934 92.1248 34.32 91.7914 34.32H91.4514L91.1114 34.3L90.6514 34.28ZM93.7114 28.94C93.6581 27.3667 93.7114 26.2534 93.8714 25.6C93.9648 25.16 94.1714 24.9467 94.4914 24.96L95.0714 24.98L95.9914 24.94H96.2114C96.3714 24.94 96.4581 25.0467 96.4714 25.26L96.2314 27.08C96.1648 27.5867 96.1314 28.18 96.1314 28.86C96.1314 29.18 96.1648 30.1067 96.2314 31.64C96.2314 31.88 96.2448 32.1867 96.2714 32.56C96.3114 32.7467 96.3714 33.1267 96.4514 33.7L96.4714 33.9C96.4714 34.02 96.3914 34.1134 96.2314 34.18C96.0848 34.2467 95.8181 34.28 95.4314 34.28H94.4914C94.1581 34.28 93.9448 34.1 93.8514 33.74C93.8381 33.6334 93.8248 33.32 93.8114 32.8L93.7914 31.34L93.7114 28.94ZM87.2714 33.6L89.8914 33.58L89.9114 32.94C89.9248 32.34 89.7914 31.8067 89.5114 31.34C89.0848 30.6334 88.3314 30.2 87.2514 30.04C87.2514 30.2 87.2381 30.3267 87.2114 30.42V31.1L87.2314 32.68L87.2714 33.6ZM108.578 28.74L107.538 28.56L107.718 27.98L107.798 27.42C107.798 26.2334 107.011 25.64 105.438 25.64H105.078L105.058 27.52L105.018 28.88L105.058 31.14L105.158 33.72C105.171 33.96 105.145 34.1134 105.078 34.18C104.971 34.3 104.731 34.36 104.358 34.36H103.178C102.925 34.36 102.765 34.2467 102.698 34.02C102.658 33.9267 102.631 33.7067 102.618 33.36C102.591 32.9467 102.585 32.52 102.598 32.08L102.618 30.84V29.98L102.658 27.7L102.718 25.64H102.358C100.785 25.64 99.9981 26.2334 99.9981 27.42L100.078 27.94L100.258 28.56L99.2181 28.74C98.9781 27.9934 98.7381 27.4134 98.4981 27C98.4048 26.8534 98.2581 26.64 98.0581 26.36L97.8181 25.94C97.7781 25.8467 97.7448 25.6867 97.7181 25.46C97.7181 25.2867 97.7715 25.1267 97.8781 24.98C97.9981 24.8334 98.1381 24.7534 98.2981 24.74L99.5581 24.9L100.698 24.98L107.618 24.96C107.871 24.9467 108.065 24.9267 108.198 24.9L108.858 24.8L109.498 24.74C109.658 24.74 109.791 24.8067 109.898 24.94C110.018 25.0734 110.078 25.2467 110.078 25.46C110.078 25.6334 110.051 25.78 109.998 25.9L109.738 26.36C109.485 26.72 109.251 27.1067 109.038 27.52L108.578 28.74ZM117.175 34.28H112.015C111.548 34.28 111.315 34.02 111.315 33.5V30.86C111.315 32.2334 111.295 31.6267 111.255 29.04C111.242 27.8934 111.288 26.9867 111.395 26.32C111.528 25.4 111.775 24.9467 112.135 24.96L112.735 24.98H113.375L113.655 24.94H113.875C114.035 24.94 114.122 25.0467 114.135 25.26L114.055 25.66C113.935 26.06 113.868 26.58 113.855 27.22L113.835 28.86C113.808 28.9934 113.795 29.0867 113.795 29.14C115.488 29.14 116.855 29.5534 117.895 30.38C118.935 31.1934 119.455 32.2334 119.455 33.5C119.455 33.8734 119.322 34.12 119.055 34.24C118.895 34.2934 118.648 34.32 118.315 34.32H117.975L117.635 34.3L117.175 34.28ZM120.235 28.94C120.182 27.3667 120.235 26.2534 120.395 25.6C120.488 25.16 120.695 24.9467 121.015 24.96L121.595 24.98L122.515 24.94H122.735C122.895 24.94 122.982 25.0467 122.995 25.26L122.755 27.08C122.688 27.5867 122.655 28.18 122.655 28.86C122.655 29.18 122.688 30.1067 122.755 31.64C122.755 31.88 122.768 32.1867 122.795 32.56C122.835 32.7467 122.895 33.1267 122.975 33.7L122.995 33.9C122.995 34.02 122.915 34.1134 122.755 34.18C122.608 34.2467 122.342 34.28 121.955 34.28H121.015C120.682 34.28 120.468 34.1 120.375 33.74C120.362 33.6334 120.348 33.32 120.335 32.8L120.315 31.34L120.235 28.94ZM113.795 33.6L116.415 33.58L116.435 32.94C116.448 32.34 116.315 31.8067 116.035 31.34C115.608 30.6334 114.855 30.2 113.775 30.04C113.775 30.2 113.762 30.3267 113.735 30.42V31.1L113.755 32.68L113.795 33.6ZM127.902 24.98H129.462C129.782 24.98 129.975 25.1 130.042 25.34C130.068 25.6067 130.102 25.88 130.142 26.16C130.208 26.7734 130.375 27.6734 130.642 28.86L131.002 30.46C131.082 30.78 131.195 31.1934 131.342 31.7C131.462 30.9 131.642 30.2067 131.882 29.62L132.362 28.44C132.722 27.56 132.902 27.0534 132.902 26.92V26.12C132.862 25.9067 132.835 25.76 132.822 25.68L132.742 25.1C132.742 25.02 132.895 24.98 133.202 24.98H134.842C135.202 24.98 135.395 25.0934 135.422 25.32C135.422 26.1067 135.475 26.84 135.582 27.52C135.595 27.6134 135.708 28.1334 135.922 29.08C136.228 30.44 136.735 31.86 137.442 33.34L137.562 33.68L137.622 34C137.622 34.1334 137.588 34.22 137.522 34.26L137.182 34.28H135.822C135.262 34.28 134.675 33.26 134.062 31.22C133.822 30.4467 133.635 29.7067 133.502 29L133.342 28.18C132.408 30.18 131.942 31.9067 131.942 33.36V33.8L131.962 34.02C131.962 34.1667 131.902 34.2534 131.782 34.28H130.242C130.002 34.28 129.822 34.22 129.702 34.1C129.488 33.8067 129.168 32.7867 128.742 31.04C128.488 29.9734 128.228 28.7667 127.962 27.42C126.762 28.9 126.162 30.4267 126.162 32C126.162 32.3734 126.202 32.6734 126.282 32.9L126.722 34.16C126.722 34.24 126.648 34.28 126.502 34.28H124.762C124.548 34.28 124.442 33.98 124.442 33.38C124.442 32.2734 125.022 30.7734 126.182 28.88C127.062 27.4534 127.482 26.5 127.442 26.02L127.422 25.78L127.382 25.44L127.422 25.2C127.462 25.0934 127.508 25.0334 127.562 25.02L127.902 24.98ZM151.761 31L152.421 31.52C152.101 32.2 151.661 32.8867 151.101 33.58C150.368 34.5 149.741 34.96 149.221 34.96C148.448 34.96 147.661 34.2267 146.861 32.76C146.141 31.4267 145.781 30.3267 145.781 29.46C145.781 28.34 146.195 27.1734 147.021 25.96C147.781 24.84 148.448 24.28 149.021 24.28C149.381 24.28 149.995 24.5067 150.861 24.96C151.781 25.44 152.241 25.8334 152.241 26.14C152.241 26.2734 152.055 26.5334 151.681 26.92C151.415 27.1867 151.215 27.4334 151.081 27.66C151.041 27.7267 150.975 27.8134 150.881 27.92C150.868 27.9467 150.841 27.98 150.801 28.02C150.628 27.82 150.361 27.5267 150.001 27.14C149.855 26.9934 149.721 26.8667 149.601 26.76C149.188 26.4534 148.661 26.2267 148.021 26.08L147.781 26.88C147.715 27.28 147.681 27.5934 147.681 27.82C147.681 28.7267 147.961 29.6467 148.521 30.58C149.108 31.5667 149.808 32.2134 150.621 32.52L151.061 32.04L151.761 31ZM162.502 25.88L163.022 26.5L162.062 27.02C161.742 27.14 161.442 27.2 161.162 27.2C160.908 27.2 160.668 27.1467 160.442 27.04C160.215 26.92 159.875 26.6267 159.422 26.16L158.962 25.68C158.762 25.5067 158.568 25.42 158.382 25.42C157.355 25.4067 156.842 26.7734 156.842 29.52C157.162 29.2667 157.588 29.02 158.122 28.78C158.708 28.5134 159.168 28.38 159.502 28.38C159.742 28.38 160.008 28.4267 160.302 28.52C160.515 28.6 160.775 28.74 161.082 28.94C161.282 29.0734 161.455 29.14 161.602 29.14C161.842 29.1534 162.095 29.0467 162.362 28.82L162.762 29.36L162.162 29.98L161.682 30.36L161.142 30.7C161.008 30.78 160.835 30.82 160.622 30.82C160.435 30.82 160.282 30.8 160.162 30.76L159.682 30.48L158.862 30.02C158.675 29.9134 158.455 29.86 158.202 29.86C157.695 29.86 157.248 30.0534 156.862 30.44C156.862 31.4 157.082 32.2134 157.522 32.88C158.028 33.6534 158.735 34.04 159.642 34.04C160.402 34.04 161.262 33.6934 162.222 33L162.602 33.42C161.602 34.4467 160.402 34.96 159.002 34.96C157.788 34.96 156.748 34.6667 155.882 34.08C154.655 33.2534 154.042 31.9667 154.042 30.22V29.54C154.042 28.4467 154.375 27.4267 155.042 26.48C155.868 25.2934 156.962 24.7 158.322 24.7C158.895 24.7 159.508 24.8267 160.162 25.08C160.508 25.2134 160.895 25.42 161.322 25.7L161.722 25.96L162.062 26.04C162.235 26.04 162.382 25.9867 162.502 25.88ZM166.163 32.84L166.243 33.52L166.343 34.68L166.423 36.72C166.463 37.6267 166.349 38.32 166.083 38.8C165.856 39.2 165.549 39.4 165.163 39.4C164.909 39.4 164.756 39.3334 164.703 39.2V39.08L164.723 38.6L164.703 35.76C164.703 35.76 164.703 35.6134 164.703 35.32C164.663 35.0534 164.636 34.8734 164.623 34.78L164.343 31.82L164.263 30.06C164.196 28.5667 164.703 27.16 165.783 25.84C166.623 24.8134 167.369 24.3 168.023 24.3C168.716 24.3 169.463 24.9134 170.263 26.14C171.156 27.5134 171.603 28.98 171.603 30.54C171.603 31.5534 171.389 32.44 170.963 33.2C170.456 34.12 169.736 34.58 168.803 34.58C168.283 34.58 167.776 34.4134 167.283 34.08C166.803 33.7334 166.429 33.32 166.163 32.84ZM166.723 26.18C166.163 26.9934 165.883 28.0267 165.883 29.28C165.883 30.44 166.183 31.44 166.783 32.28C167.303 33 167.836 33.36 168.383 33.36C169.103 33.36 169.463 32.8467 169.463 31.82V31.08C169.463 30.24 169.183 29.3067 168.623 28.28C168.076 27.24 167.443 26.54 166.723 26.18ZM178.777 34.3H177.257C175.897 34.3 175.217 34.8134 175.217 35.84C175.217 36.4667 175.397 37.1534 175.757 37.9L174.737 38.04C174.243 36.8667 173.73 35.9267 173.197 35.22L172.797 34.56C172.69 34.3867 172.637 34.1934 172.637 33.98C172.637 33.7667 172.823 33.62 173.197 33.54H173.577C174.11 33.54 174.49 33.3867 174.717 33.08C175.077 32.6 175.523 31.5134 176.057 29.82C176.59 28.1267 176.857 26.9734 176.857 26.36V26.14C176.857 25.9267 176.79 25.72 176.657 25.52C176.577 25.36 176.537 25.22 176.537 25.1C176.59 25.02 176.637 24.98 176.677 24.98L176.997 24.94L178.197 24.98L179.237 24.96C179.33 24.96 179.47 24.9467 179.657 24.92C179.843 24.92 179.957 24.9467 179.997 25C180.037 25.0534 180.057 25.18 180.057 25.38C180.057 26.14 180.25 27.2134 180.637 28.6C180.677 28.7334 180.777 29.0467 180.937 29.54C181.51 31.38 181.943 32.5534 182.237 33.06C182.437 33.3934 182.67 33.56 182.937 33.56L183.117 33.54C183.503 33.54 183.697 33.6867 183.697 33.98C183.697 34.1667 183.65 34.34 183.557 34.5C183.477 34.66 183.35 34.8734 183.177 35.14L182.537 36.1C182.283 36.4867 181.963 37.1334 181.577 38.04L180.557 37.9L180.917 36.78C181.037 36.4067 181.097 36.0934 181.097 35.84C181.097 34.8134 180.323 34.3 178.777 34.3ZM175.377 33.62H179.917L179.577 32.96L179.237 32.1C178.663 30.66 178.257 29.1734 178.017 27.64L177.877 26.76H177.577C177.43 27.6667 177.25 28.4534 177.037 29.12L176.497 30.8L175.837 32.6C175.677 33.0534 175.523 33.3934 175.377 33.62ZM187.391 33.6H190.431L190.311 28.96C190.271 27.32 190.325 26.2 190.471 25.6C190.578 25.16 190.778 24.9467 191.071 24.96L191.891 24.98L192.591 24.94H192.811C192.971 24.94 193.058 25.0467 193.071 25.26L192.991 25.68L192.851 26.54L192.751 27.68L192.731 28.88V31.74C192.731 32.22 192.745 32.52 192.771 32.64C192.838 33.0134 193.005 33.2334 193.271 33.3H193.631L194.031 33.2L194.511 33.12C194.818 33.12 195.005 33.28 195.071 33.6L195.011 34L194.711 34.84L194.231 36.28L193.691 38H192.591C192.738 37.3067 192.811 36.82 192.811 36.54C192.811 35.74 192.625 35.1867 192.251 34.88C191.731 34.4534 190.665 34.2534 189.051 34.28L186.191 34.32L185.431 34.4C185.138 34.4 184.938 33.9734 184.831 33.12C184.751 32.5067 184.718 31.68 184.731 30.64C184.771 28.76 184.791 28.2 184.791 28.96C184.791 27.2267 184.865 26.0734 185.011 25.5C185.105 25.14 185.285 24.96 185.551 24.96L186.371 24.98L187.071 24.94H187.271C187.445 24.9667 187.531 25.0734 187.531 25.26C187.531 25.2867 187.498 25.5734 187.431 26.12L187.271 27.42L187.211 28.88C187.211 28.88 187.211 29.1334 187.211 29.64C187.211 29.5334 187.225 29.7867 187.251 30.4L187.391 33.6ZM204.318 25.88L204.838 26.5L203.878 27.02C203.558 27.14 203.258 27.2 202.978 27.2C202.725 27.2 202.485 27.1467 202.258 27.04C202.031 26.92 201.691 26.6267 201.238 26.16L200.778 25.68C200.578 25.5067 200.385 25.42 200.198 25.42C199.171 25.4067 198.658 26.7734 198.658 29.52C198.978 29.2667 199.405 29.02 199.938 28.78C200.525 28.5134 200.985 28.38 201.318 28.38C201.558 28.38 201.825 28.4267 202.118 28.52C202.331 28.6 202.591 28.74 202.898 28.94C203.098 29.0734 203.271 29.14 203.418 29.14C203.658 29.1534 203.911 29.0467 204.178 28.82L204.578 29.36L203.978 29.98L203.498 30.36L202.958 30.7C202.825 30.78 202.651 30.82 202.438 30.82C202.251 30.82 202.098 30.8 201.978 30.76L201.498 30.48L200.678 30.02C200.491 29.9134 200.271 29.86 200.018 29.86C199.511 29.86 199.065 30.0534 198.678 30.44C198.678 31.4 198.898 32.2134 199.338 32.88C199.845 33.6534 200.551 34.04 201.458 34.04C202.218 34.04 203.078 33.6934 204.038 33L204.418 33.42C203.418 34.4467 202.218 34.96 200.818 34.96C199.605 34.96 198.565 34.6667 197.698 34.08C196.471 33.2534 195.858 31.9667 195.858 30.22V29.54C195.858 28.4467 196.191 27.4267 196.858 26.48C197.685 25.2934 198.778 24.7 200.138 24.7C200.711 24.7 201.325 24.8267 201.978 25.08C202.325 25.2134 202.711 25.42 203.138 25.7L203.538 25.96L203.878 26.04C204.051 26.04 204.198 25.9867 204.318 25.88ZM208.839 24.98H210.399C210.719 24.98 210.912 25.1 210.979 25.34C211.006 25.6067 211.039 25.88 211.079 26.16C211.146 26.7734 211.312 27.6734 211.579 28.86L211.939 30.46C212.019 30.78 212.132 31.1934 212.279 31.7C212.399 30.9 212.579 30.2067 212.819 29.62L213.299 28.44C213.659 27.56 213.839 27.0534 213.839 26.92V26.12C213.799 25.9067 213.772 25.76 213.759 25.68L213.679 25.1C213.679 25.02 213.832 24.98 214.139 24.98H215.779C216.139 24.98 216.332 25.0934 216.359 25.32C216.359 26.1067 216.412 26.84 216.519 27.52C216.532 27.6134 216.646 28.1334 216.859 29.08C217.166 30.44 217.672 31.86 218.379 33.34L218.499 33.68L218.559 34C218.559 34.1334 218.526 34.22 218.459 34.26L218.119 34.28H216.759C216.199 34.28 215.612 33.26 214.999 31.22C214.759 30.4467 214.572 29.7067 214.439 29L214.279 28.18C213.346 30.18 212.879 31.9067 212.879 33.36V33.8L212.899 34.02C212.899 34.1667 212.839 34.2534 212.719 34.28H211.179C210.939 34.28 210.759 34.22 210.639 34.1C210.426 33.8067 210.106 32.7867 209.679 31.04C209.426 29.9734 209.166 28.7667 208.899 27.42C207.699 28.9 207.099 30.4267 207.099 32C207.099 32.3734 207.139 32.6734 207.219 32.9L207.659 34.16C207.659 34.24 207.586 34.28 207.439 34.28H205.699C205.486 34.28 205.379 33.98 205.379 33.38C205.379 32.2734 205.959 30.7734 207.119 28.88C207.999 27.4534 208.419 26.5 208.379 26.02L208.359 25.78L208.319 25.44L208.359 25.2C208.399 25.0934 208.446 25.0334 208.499 25.02L208.839 24.98ZM222.207 29.5H221.047C221.047 28.5134 220.967 27.4667 220.807 26.36C220.674 25.7467 220.461 24.7134 220.167 23.26L219.947 22.06L219.867 20.88C219.827 20.36 219.974 19.82 220.307 19.26C220.681 18.6467 221.121 18.34 221.627 18.34C221.987 18.34 222.354 18.56 222.727 19C223.181 19.52 223.407 20.1467 223.407 20.88C223.407 21.3734 223.354 21.8667 223.247 22.36L222.947 23.76L222.467 25.84C222.294 26.5867 222.207 27.8067 222.207 29.5ZM220.447 33.02C220.447 32.5267 220.447 32.2734 220.447 32.26C220.501 31.9667 220.654 31.8134 220.907 31.8L221.587 31.82L222.427 31.78H222.647C222.794 31.7934 222.881 31.8934 222.907 32.08L222.887 33.04L222.907 33.98C222.907 34.14 222.821 34.24 222.647 34.28H222.427L221.587 34.24L220.907 34.26C220.707 34.26 220.581 34.2067 220.527 34.1C220.474 33.94 220.447 33.58 220.447 33.02Z" fill="#2C1331"/>
</svg>
