<svg width="83" height="100" viewBox="0 0 83 100" fill="none" xmlns="http://www.w3.org/2000/svg">
<path d="M83 99.9995C83 99.9995 77.4384 99.9927 69.6697 91.2056C60.3331 80.6447 50.1082 75.9458 37.444 75.0871C23.4086 74.136 11.2394 81.0535 6.81856 91.9206C2.39602 102.788 17.0417 101.472 23.317 95.1399C29.5923 88.8074 23.1102 81.3956 15.1127 87.4133C10.6546 90.7677 11.3852 96.4091 18.9403 94.495C18.9403 94.495 14.594 98.496 9.90025 97.2507C5.20652 96.0071 9.26968 86.7069 17.8842 81.3032C26.5004 75.8979 35.2573 76.7378 46.6162 80.4959C58.6939 84.4917 67.2677 90.0561 56.336 99.9961L83 99.9995Z" fill="#8C8B55"/>
<path d="M38.6379 78.3697C35.3931 77.1724 45.3861 78.7847 49.3204 84.657C53.5251 90.9306 55.1103 94.2493 58.5951 93.6088C59.8592 93.3782 60.6856 92.0306 60.6197 90.7342C60.5538 89.4395 59.8558 88.2746 59.1764 87.1729C60.7076 88.8041 61.8314 90.8999 61.9835 93.1425C62.1373 95.3852 61.2112 97.7542 59.3725 99.0199C57.2634 100.472 54.9075 100.354 52.4367 98.376C50.4358 96.7755 48.8151 94.5551 47.1944 91.0126C47.1944 91.0365 46.3696 81.2238 38.6379 78.3697Z" fill="#8C8B55"/>
<path d="M47.9868 89.9918C47.1224 92.2832 45.8457 95.4909 41.5723 98.4342C39.0482 100.174 35.5252 100.393 32.5836 99.4419C29.642 98.4907 27.2198 95.89 27.0145 92.9051C26.8609 90.6819 27.9427 88.447 29.7059 87.0053C31.1999 85.7814 33.2133 85.0979 35.156 85.364C37.0969 85.6284 38.905 86.9121 39.5537 88.6964C39.8384 89.4779 39.8815 90.4025 39.3949 91.0843C38.9084 91.7677 37.7749 92.0255 37.1642 91.4435C36.6259 90.928 36.6966 90.0533 36.2653 89.453C35.6943 88.6565 34.44 88.6282 33.5308 89.0373C31.5398 89.9336 30.6962 92.5127 31.5605 94.4616C32.4249 96.4088 34.7039 97.5911 36.8985 97.4913C39.0947 97.3932 41.9552 95.9116 43.2578 94.2055C46.1183 90.4574 46.6083 87.3578 43.6891 82C46.5755 84.7537 48.1628 86.5097 47.9868 89.9918Z" fill="#8C8B55"/>
<path d="M39.6122 92.1389C41.5892 90.182 41.4062 86.7351 39.6427 84.5906C37.8809 82.4461 34.9248 81.5042 32.1178 81.5623C29.3091 81.6205 26.6003 82.554 24 83.5989C26.8511 81.0258 31.6859 78.3364 36.2055 79.147C39.5682 79.7517 42.8411 81.6603 44.303 84.6919C45.765 87.7235 44.9027 91.8698 41.9449 93.5508C41.2487 93.9462 40.3576 94.192 39.6546 93.8067C38.9533 93.4229 38.9736 92.6505 39.6122 92.1389Z" fill="#8C8B55"/>
<path d="M1 80C3.55437 76.4744 5.45618 72.5407 6.59908 68.4238C7.08943 66.6552 7.3562 64.5489 6.02403 63.2102C4.74413 61.9236 2.88558 61.9488 1 62.0344V80Z" fill="#8C8B55"/>
<path d="M1.40892 95C1.40892 87.2641 6.35246 81.1543 11.2995 75.606C16.2448 70.0577 21.9426 64.5697 23.6011 57.392C24.1685 54.9322 24.2073 52.2846 23.2116 49.9592C22.5877 48.5002 21.5056 47.1963 20.1556 46.3471C18.7615 45.4703 16.9216 46.3454 16.7488 47.9559C16.3787 51.4268 18.0231 55.2698 17.4908 58.8595C16.8123 63.4432 12.8187 66.7246 9.79616 70.2903C3.76348 77.4043 -0.348209 86.8283 1.40892 95Z" fill="#8C8B55"/>
<path d="M6.28403 75C9.08894 71.5085 10.8102 67.1044 11.1398 62.5817C11.2152 61.5624 11.207 60.4804 10.7185 59.5915C10.2299 58.7025 9.11026 58.1082 8.21515 58.5484C7.77583 59.9047 6.34467 60.7852 4.96272 60.7107C3.57911 60.6379 2.30861 59.7117 1.61679 58.4739C0.162706 55.8714 1.41354 52.1988 3.96762 50.7629C6.52173 49.3253 9.90534 50.0128 12.048 52.043C14.1906 54.0749 15.1512 57.2192 14.9807 60.218C14.8119 63.2167 13.6103 66.0749 11.9922 68.5707C10.3726 71.0666 8.3414 73.2424 6.28403 75Z" fill="#8C8B55"/>
<path d="M1 49.27C2.46238 47.2048 4.62611 45.6496 7.04581 44.9224C7.72324 44.7188 8.4314 44.5785 9.13273 44.6623C9.83236 44.7445 10.5286 45.0781 10.6992 45.961C9.50984 46.5684 9.43305 48.4675 10.4228 49.3641C11.4142 50.2606 13.0455 50.1614 14.1189 49.3658C15.1922 48.5719 15.7604 47.2373 15.9328 45.9113C16.4276 42.0873 14.0745 38.5645 12.6889 34.968C10.9142 30.3553 10.7112 25.1505 11.8561 20.6473C8.93139 26.3687 8.86484 33.6626 11.0047 39.7245C9.44502 35.0536 5.85133 34.2066 3.80364 30.487C0.305506 24.1393 2.19788 16.8934 4.69097 12.4791C7.22839 7.98443 10.6549 4.74558 13.7281 1.49304C10.9927 2.35879 8.42457 3.74809 6.30179 5.58737C6.80008 4.1245 6.41101 2.39472 5.33427 1.28773C4.25924 0.179028 2.546 -0.257271 1.05632 0.149937L1 49.27Z" fill="#8C8B55"/>
<path d="M0 0V96H2V0H0Z" fill="#8C8B55"/>
</svg>
