<svg width="83" height="100" viewBox="0 0 83 100" fill="none" xmlns="http://www.w3.org/2000/svg">
<path d="M83 0.000453798C83 0.000453798 77.4384 0.00729677 69.6697 8.79439C60.3331 19.3553 50.1082 24.0542 37.444 24.9129C23.4086 25.864 11.2394 18.9465 6.81856 8.07938C2.39602 -2.78774 17.0417 -1.47233 23.317 4.86012C29.5923 11.1926 23.1102 18.6044 15.1127 12.5867C10.6546 9.23229 11.3852 3.5909 18.9403 5.505C18.9403 5.505 14.594 1.50403 9.90025 2.74931C5.20652 3.99288 9.26968 13.2931 17.8842 18.6968C26.5004 24.1021 35.2573 23.2622 46.6162 19.5041C58.6939 15.5083 67.2677 9.94388 56.336 0.00387406L83 0.000453798Z" fill="#8C8B55"/>
<path d="M38.6379 21.6303C35.3931 22.8276 45.3861 21.2153 49.3204 15.343C53.5251 9.06938 55.1103 5.75066 58.5951 6.39117C59.8592 6.62176 60.6856 7.9694 60.6197 9.2658C60.5538 10.5605 59.8558 11.7254 59.1764 12.8271C60.7076 11.1959 61.8314 9.10012 61.9835 6.85747C62.1373 4.61481 61.2112 2.24576 59.3725 0.980101C57.2634 -0.471733 54.9075 -0.353878 52.4367 1.62403C50.4358 3.22447 48.8151 5.44492 47.1944 8.98739C47.1944 8.96348 46.3696 18.7762 38.6379 21.6303Z" fill="#8C8B55"/>
<path d="M47.9868 10.0082C47.1224 7.71678 45.8457 4.50909 41.5723 1.56581C39.0482 -0.17356 35.5252 -0.393061 32.5836 0.558105C29.642 1.50927 27.2198 4.11001 27.0145 7.09486C26.8609 9.31813 27.9427 11.553 29.7059 12.9947C31.1999 14.2186 33.2133 14.9021 35.156 14.636C37.0969 14.3716 38.905 13.0879 39.5537 11.3036C39.8384 10.5221 39.8815 9.59749 39.3949 8.91571C38.9084 8.23227 37.7749 7.97453 37.1642 8.55653C36.6259 9.07203 36.6966 9.9467 36.2653 10.547C35.6943 11.3435 34.44 11.3718 33.5308 10.9627C31.5398 10.0664 30.6962 7.48731 31.5605 5.53842C32.4249 3.59119 34.7039 2.40888 36.8985 2.50866C39.0947 2.60677 41.9552 4.08839 43.2578 5.7945C46.1183 9.54262 46.6083 12.6422 43.6891 18C46.5755 15.2463 48.1628 13.4903 47.9868 10.0082Z" fill="#8C8B55"/>
<path d="M39.6122 7.86113C41.5892 9.81797 41.4062 13.2649 39.6427 15.4094C37.8809 17.5539 34.9248 18.4958 32.1178 18.4377C29.3091 18.3795 26.6003 17.446 24 16.4011C26.8511 18.9742 31.6859 21.6636 36.2055 20.853C39.5682 20.2483 42.8411 18.3397 44.303 15.3081C45.765 12.2765 44.9027 8.13024 41.9449 6.44916C41.2487 6.05381 40.3576 5.80795 39.6546 6.19334C38.9533 6.57707 38.9736 7.3495 39.6122 7.86113Z" fill="#8C8B55"/>
<path d="M1 20C3.55437 23.5256 5.45618 27.4593 6.59908 31.5762C7.08943 33.3448 7.3562 35.4511 6.02403 36.7898C4.74413 38.0764 2.88558 38.0512 1 37.9656V20Z" fill="#8C8B55"/>
<path d="M1.40892 5C1.40892 12.7359 6.35246 18.8457 11.2995 24.394C16.2448 29.9423 21.9426 35.4303 23.6011 42.608C24.1685 45.0678 24.2073 47.7154 23.2116 50.0408C22.5877 51.4998 21.5056 52.8037 20.1556 53.6529C18.7615 54.5297 16.9216 53.6546 16.7488 52.0441C16.3787 48.5732 18.0231 44.7302 17.4908 41.1405C16.8123 36.5568 12.8187 33.2754 9.79616 29.7097C3.76348 22.5957 -0.348209 13.1717 1.40892 5Z" fill="#8C8B55"/>
<path d="M6.28403 25C9.08894 28.4915 10.8102 32.8956 11.1398 37.4183C11.2152 38.4376 11.207 39.5196 10.7185 40.4085C10.2299 41.2975 9.11026 41.8918 8.21515 41.4516C7.77583 40.0953 6.34467 39.2148 4.96272 39.2893C3.57911 39.3621 2.30861 40.2883 1.61679 41.5261C0.162706 44.1286 1.41354 47.8012 3.96762 49.2371C6.52173 50.6747 9.90534 49.9872 12.048 47.957C14.1906 45.9251 15.1512 42.7808 14.9807 39.782C14.8119 36.7833 13.6103 33.9251 11.9922 31.4293C10.3726 28.9334 8.3414 26.7576 6.28403 25Z" fill="#8C8B55"/>
<path d="M1 50.73C2.46238 52.7952 4.62611 54.3504 7.04581 55.0776C7.72324 55.2812 8.4314 55.4215 9.13273 55.3377C9.83236 55.2555 10.5286 54.9219 10.6992 54.039C9.50984 53.4316 9.43305 51.5325 10.4228 50.6359C11.4142 49.7394 13.0455 49.8386 14.1189 50.6342C15.1922 51.4281 15.7604 52.7627 15.9328 54.0887C16.4276 57.9127 14.0745 61.4355 12.6889 65.032C10.9142 69.6447 10.7112 74.8495 11.8561 79.3527C8.93139 73.6313 8.86484 66.3374 11.0047 60.2755C9.44502 64.9464 5.85133 65.7934 3.80364 69.513C0.305506 75.8607 2.19788 83.1066 4.69097 87.5209C7.22839 92.0156 10.6549 95.2544 13.7281 98.507C10.9927 97.6412 8.42457 96.2519 6.30179 94.4126C6.80008 95.8755 6.41101 97.6053 5.33427 98.7123C4.25924 99.821 2.546 100.257 1.05632 99.8501L1 50.73Z" fill="#8C8B55"/>
<path d="M0 100V4H2V100H0Z" fill="#8C8B55"/>
</svg>
