<svg width="210" height="43" viewBox="0 0 210 43" fill="none" xmlns="http://www.w3.org/2000/svg">
<path d="M145.559 7.6636C146.148 9.66546 146.891 10.304 148.454 10.1199C149.197 10.0338 150.002 9.76827 150.608 9.34258C153.079 7.62057 153.058 3.13137 150.63 1.35438C146.086 -1.96766 138.975 1.18935 138.335 6.82894C138.256 7.54163 138.256 8.27828 138.326 8.9934C138.587 11.6242 140.435 13.6404 143.03 14.169C144.984 14.5684 146.915 14.3531 148.821 13.8628C149.681 13.6428 150.534 13.3749 151.375 13.0784C159.481 10.2227 167.84 9.26845 176.384 9.79462C178.045 9.89505 179.709 10.1797 181.338 10.5288C185.482 11.4185 188.576 13.8485 190.874 17.3284C192.427 19.6794 192.84 22.2457 192.135 24.9889C191.68 26.754 191.121 27.2299 189.245 27.359C189.031 27.3758 188.818 27.4236 188.61 27.4547C188.703 29.1265 189.571 29.8416 191.03 29.4901C192.516 29.1337 193.41 28.1077 193.993 26.7779C195.371 23.6328 195.001 20.5428 193.41 17.6274C190.894 13.0138 186.853 10.2753 181.858 8.95272C178.129 7.96256 174.314 7.50337 170.438 7.8908C170 7.93626 169.556 7.94107 169.096 7.86212C170.788 6.86958 172.658 6.41992 174.551 6.12339C176.969 5.74311 179.404 5.44891 181.842 5.19541C184.257 4.94428 186.623 5.27673 188.919 6.07075C190.865 6.74523 192.785 7.50099 194.75 8.10849C196.679 8.7064 199.682 7.53686 200.823 5.88423C201.321 5.16191 201.175 4.5042 200.612 3.92543C198.764 2.02882 196.583 0.923881 193.87 1.42375C192.562 1.6653 191.303 2.16517 190.007 2.48323C188.768 2.78458 187.51 3.21508 186.259 3.22227C178.352 3.26291 170.783 4.86533 163.454 7.77841C162.021 8.35003 160.447 8.55809 158.949 8.97902C156.806 9.57694 154.678 10.2251 152.54 10.8374C150.618 11.3875 148.715 12.0739 146.755 12.3991C145.477 12.612 144.082 12.4278 142.793 12.1624C141.051 11.806 140.214 10.6149 139.998 8.85705C139.478 4.59987 143.301 1.19892 147.433 1.74182C149.676 2.03839 151.2 4.37266 150.608 6.57062C150.429 7.24029 150.002 7.65407 149.345 7.74254C148.746 7.82387 148.128 7.79995 147.522 7.78561C146.927 7.77365 146.335 7.71386 145.559 7.6636Z" fill="#8C8B55"/>
<path d="M41.0879 7.89848C38.7968 7.89848 36.4958 7.78074 34.2145 7.9249C30.3349 8.16757 26.5676 8.97247 23.154 10.9139C19.3818 13.0595 16.5417 15.998 15.4144 20.2628C14.7995 22.591 14.8459 24.9096 15.8658 27.1513C16.3269 28.1629 17.0491 28.9318 18.0935 29.3498C19.6526 29.9745 20.8604 29.2922 21.1337 27.567C20.7311 27.6006 20.3578 27.6198 19.9845 27.6607C18.5424 27.8241 17.991 27.5237 17.6713 26.099C16.8198 22.2858 17.3639 18.7563 20.1211 15.7721C23.0637 12.5885 26.7872 10.8105 31.0425 10.0801C35.959 9.23677 40.883 9.53232 45.7898 10.1762C48.4298 10.5246 51.0772 10.8754 53.6758 11.4305C56.1036 11.9494 58.4655 12.764 60.8664 13.4055C62.2816 13.7827 63.7042 14.2056 65.151 14.3809C68.6402 14.8039 70.685 13.1123 72.0147 9.6236C72.9102 7.27378 72.471 4.89989 70.6825 3.05704C68.306 0.611068 65.3072 -0.376434 61.8644 0.128134C60.5785 0.315563 59.5366 0.964293 58.6509 1.87971C57.4822 3.08346 57.1015 4.45779 57.775 6.02916C58.058 6.69713 58.3533 7.37228 58.7461 7.98018C59.8807 9.73894 62.3182 10.3036 64.1556 9.27764C65.317 8.63131 65.6 7.85522 65.0266 6.6731C64.7875 6.78601 64.5166 6.85809 64.3166 7.01666C62.8843 8.15077 61.3984 8.2565 60.3614 7.27617C59.3561 6.32471 59.1804 4.30644 60.0222 3.07623C60.7396 2.02627 61.8132 1.42081 63.0454 1.45924C65.3634 1.53132 67.5276 2.1464 69.16 3.93642C70.8362 5.77209 71.0826 8.54238 69.7236 10.6256C68.9086 11.8701 67.7692 12.5909 66.2124 12.6702C64.4752 12.7567 62.7989 12.5309 61.2495 11.7644C58.5216 10.4165 55.5717 9.84467 52.6217 9.28966C49.2741 8.66012 45.924 8.00421 42.8032 6.62505C36.9765 4.04933 30.8131 3.37178 24.535 3.32612C22.1292 3.30693 19.8381 3.08106 17.5811 2.10314C15.2997 1.11564 12.8304 0.889772 10.4612 1.90135C9.55839 2.28578 8.68733 2.91527 8.02611 3.63369C7.10868 4.63081 7.18674 5.59428 8.28473 6.37995C9.46079 7.22089 10.7833 7.89365 12.1204 8.46551C12.6035 8.67213 13.3453 8.47274 13.9065 8.28292C15.2485 7.83119 16.5539 7.2834 17.8715 6.76438C20.4285 5.75768 23.0808 5.22909 25.838 5.2435C29.3004 5.2603 32.7676 5.34679 36.1616 6.08444C37.8525 6.45447 39.4922 7.04792 41.1538 7.54047C41.1318 7.65821 41.1099 7.77835 41.0879 7.89848Z" fill="#8C8B55"/>
<path d="M62.368 21.2115C60.8863 21.6647 59.3773 22.0444 57.9328 22.5932C55.8267 23.3919 55.118 24.6904 55.3188 26.8611C55.398 27.7112 55.8069 28.1742 56.6245 28.0885C57.8709 27.9537 59.189 27.9072 60.3288 27.4589C64.4048 25.8566 67.5193 23.0269 70.0244 19.5161C70.5001 18.8497 70.1904 17.8207 69.2984 17.3675C68.6492 17.0367 67.8885 16.7844 67.1675 16.755C61.3496 16.5247 55.8316 14.8881 50.2864 13.3618C46.6663 12.3647 42.9943 11.686 39.2082 11.8575C37.2161 11.9482 35.3256 12.3843 33.6729 13.5407C32.1515 14.6064 31.1951 16.0077 31.0563 17.9457C32.2556 18.3989 33.331 18.1931 34.3914 18.0167C37.06 17.5757 39.7335 17.2474 42.6127 17.4606C41.7727 18.6904 40.9749 19.8836 41.131 21.65C41.7554 21.5251 42.3724 21.5153 42.8853 21.2801C44.2406 20.6578 45.5464 19.9277 46.8819 19.2613C49.9668 17.7227 53.1879 16.8015 56.7261 17.2817C56.4139 17.365 56.1042 17.4655 55.787 17.5292C55.3931 17.6051 54.9917 17.6541 54.5928 17.708C52.281 18.0265 50.1055 18.7296 48.1406 19.9963C46.6663 20.9493 46.4929 21.5814 47.147 23.1396C47.4741 23.9162 48.0242 24.4038 48.8493 24.3229C50.0386 24.2028 51.2552 24.0681 52.3826 23.703C54.1294 23.1371 55.8044 22.3581 57.5215 21.6941C59.0825 21.0914 60.6881 20.7288 62.368 21.2115Z" fill="#8C8B55"/>
<path d="M167.666 16.0346C169.867 16.4308 172.067 16.832 174.271 17.2158C175.41 17.4151 176.548 17.612 177.696 17.7491C178.404 17.8313 179.114 17.7341 179.5 17.0039C179.878 16.2838 179.629 15.576 179.133 15.085C178.242 14.1979 177.325 13.2783 176.259 12.6403C174.01 11.2946 171.504 10.9333 168.899 11.1501C164.487 11.5115 160.183 12.3762 156.093 14.0683C153.199 15.267 150.17 15.5361 147.123 15.8576C145.4 16.037 143.684 16.2987 141.965 16.5379C141.624 16.5853 141.28 16.6601 140.954 16.7722C139.698 17.2058 139.427 17.7441 140.144 18.8282C140.906 19.977 141.716 21.1532 142.737 22.0554C144.508 23.6254 146.431 25.0259 148.339 26.4339C149.878 27.5703 151.704 27.9491 153.567 28.0887C154.721 28.1734 155.132 27.7198 155.127 26.5411C155.122 25.0434 154.596 23.8123 153.166 23.1444C151.908 22.5588 150.626 22.0305 149.36 21.4573C148.914 21.2554 148.493 20.9963 148.06 20.762C148.092 20.6399 148.127 20.5178 148.16 20.3957C148.745 20.4928 149.353 20.5178 149.911 20.6997C152.324 21.4897 154.711 22.3719 157.137 23.1195C158.447 23.5232 159.807 23.8472 161.167 23.9867C162.619 24.1338 163.272 23.5905 163.648 22.3569C163.952 21.3651 163.718 20.8966 162.415 19.9845C160.283 18.4917 157.891 17.6967 155.333 17.3254C154.696 17.2332 154.075 17.0114 153.448 16.847C153.463 16.7224 153.478 16.5978 153.493 16.4732C153.856 16.4233 154.22 16.3236 154.581 16.3311C157.909 16.4009 160.92 17.5198 163.775 19.1446C164.629 19.6331 165.481 20.1315 166.368 20.5477C166.991 20.8368 167.661 21.081 168.336 21.1956C169.484 21.395 169.892 20.9265 169.504 19.8449C169.235 19.0923 168.809 18.392 168.41 17.6918C168.156 17.2507 167.82 16.8544 167.521 16.4383C167.568 16.3037 167.618 16.1691 167.666 16.0346Z" fill="#8C8B55"/>
<path d="M105.369 9.61267C104.94 10.6904 104.604 11.4015 104.372 12.1447C103.632 14.5232 102.341 16.5623 100.387 18.0959C98.3455 19.6964 96.1771 21.1359 94.0835 22.672C93.0641 23.4202 92.0546 24.1932 91.1075 25.0306C90.4346 25.6253 90.0109 26.423 90.3075 27.3521C90.614 28.3134 91.4914 28.571 92.3687 28.6875C97.705 29.3936 103.729 26.6807 104.509 19.907C104.681 18.4254 104.841 16.9438 105.217 15.4102C105.277 15.7992 105.342 16.1857 105.392 16.5722C105.574 18.0537 105.556 19.5898 105.965 21.0046C107.258 25.4518 110.491 27.803 114.928 28.6652C115.825 28.8386 116.77 28.856 117.689 28.8263C118.806 28.794 119.957 28.6528 120.408 27.3917C120.845 26.1728 120.007 25.4023 119.207 24.7556C117.866 23.668 116.441 22.6819 115.035 21.6735C113.721 20.732 112.338 19.8847 111.077 18.8788C108.462 16.8001 106.827 14.055 105.875 10.8886C105.783 10.5814 105.638 10.2891 105.369 9.61267Z" fill="#8C8B55"/>
<path d="M130.064 9.6262C130.473 11.2095 130.39 11.4062 129.068 11.9817C129.47 11.0346 129.767 10.3304 130.064 9.6262ZM116.831 15.277C120.816 21.5567 133.289 22.6664 138.275 17.1322C137.96 16.7996 137.675 16.394 137.298 16.1123C135.191 14.5315 133.571 12.5232 132.1 10.3717C131.723 9.82289 131.248 9.32992 130.763 8.86853C129.828 7.98218 129.506 7.9045 128.418 8.59899C127.134 9.41491 125.938 10.3644 124.691 11.2386C123.488 12.0764 122.319 12.9846 121.04 13.6864C120.019 14.2473 118.855 14.5436 117.754 14.9564C117.457 15.0657 117.157 15.1628 116.831 15.277Z" fill="#8C8B55"/>
<path d="M79.5041 10.354C79.4308 10.3008 79.36 10.2477 79.2891 10.192C79.5648 9.81745 79.843 9.44043 80.2653 8.86847C80.4929 9.37716 80.5991 9.61757 80.7078 9.8605C80.2602 10.0452 79.8809 10.1996 79.5041 10.354ZM71.7253 17.012C73.3767 19.2262 75.5819 20.0892 78.0171 20.4612C83.5932 21.3089 88.6156 19.9196 93.1321 16.5919C93.3193 16.4527 93.4963 16.2958 93.6581 16.1288C93.7339 16.0478 93.7618 15.9213 93.9084 15.605C93.4861 15.3873 93.079 15.0988 92.6238 14.9597C89.4147 13.9601 86.724 12.1076 84.1825 9.9769C83.2847 9.22533 82.3263 8.5395 81.3502 7.88915C80.2248 7.1401 79.8632 7.21093 79.0008 8.31174C78.4976 8.95704 78.0728 9.66818 77.6201 10.354C76.1534 12.5631 74.6613 14.7471 72.3955 16.2477C72.1654 16.3996 72.0162 16.6729 71.7253 17.012Z" fill="#8C8B55"/>
<path d="M93.857 7.53312C94.9144 7.7845 96.0849 7.81329 96.8459 9.25352C95.4594 9.05191 94.5402 8.52819 93.857 7.53312ZM83.5563 3.00556C84.8725 5.5927 85.6964 8.1354 87.56 10.0889C90.5817 13.2495 95.3891 14.2393 99.2044 12.3618C101.761 11.1048 103.314 9.03094 103.653 6.05096C103.851 4.31486 104.052 2.5761 104.261 0.758791C103.419 0.622644 103.035 1.23801 102.535 1.57055C100.764 2.7411 98.996 3.91159 97.2327 5.09256C96.2632 5.74199 95.3515 5.76557 94.2789 5.21301C92.6086 4.35675 90.8705 3.63403 89.1299 2.94271C87.3717 2.2409 85.5908 2.54992 83.5563 3.00556Z" fill="#8C8B55"/>
<path d="M114.511 9.25151C114.398 9.10587 114.288 8.96028 114.178 8.81463C114.726 8.27816 115.277 7.73914 115.825 7.20267C115.926 7.32017 116.025 7.44027 116.125 7.55777C115.586 8.12234 115.047 8.6869 114.511 9.25151ZM124.965 3.25067C123.711 2.64778 122.469 2.7372 121.243 2.90579C119.497 3.14334 117.82 3.72327 116.35 4.76813C114.588 6.02245 112.933 5.73889 111.314 4.60462C110.269 3.87141 109.313 2.98497 108.324 2.15472C107.872 1.77407 107.443 1.36278 106.754 0.739441C106.62 1.50838 106.419 1.96312 106.496 2.354C106.916 4.48712 107.251 6.66619 107.907 8.71759C108.9 11.8215 111.413 12.7488 114.098 13.1677C118.391 13.8396 120.967 12.1484 123.207 7.6855C123.901 6.30091 124.367 4.7809 124.965 3.25067Z" fill="#8C8B55"/>
<path d="M69.197 28.9162C68.9273 25.3057 69.0841 24.0817 69.8884 23.2625C69.9737 25.264 69.8562 27.1306 69.197 28.9162ZM70.8703 20.7336C69.5819 21.8251 68.2474 22.8627 67.0143 24.0229C65.2949 25.6392 63.4488 27.1649 62.2871 29.3234C61.6556 30.4934 61.1255 31.7615 60.7752 33.0517C60.3557 34.6018 60.8789 35.5412 62.2226 36.2354C66.369 38.3816 71.382 35.6148 72.2002 30.8122C72.7234 27.7389 72.5114 24.82 71.1976 22.0042C71.0109 21.6069 70.9602 21.1384 70.8449 20.7042L70.8703 20.7336Z" fill="#8C8B55"/>
<path d="M142.407 28.4198C141.658 26.7821 141.56 25.6888 142.022 24.1303C142.323 25.6001 142.648 26.8853 142.407 28.4198ZM138.275 29.1199C138.556 30.4626 138.774 31.8246 139.14 33.1409C139.548 34.6035 140.523 35.5938 141.807 36.2124C143.627 37.0852 145.514 37.2218 147.394 36.5385C149.116 35.9151 149.721 34.5891 149.167 32.7405C148.677 31.098 148.101 29.4724 146.979 28.1872C145.427 26.4057 143.87 24.6242 142.236 22.9338C141.145 21.8093 140.576 21.946 139.825 23.3582C138.884 25.1206 138.279 26.9956 138.275 29.1199Z" fill="#8C8B55"/>
<path d="M139.014 19.2253C138.572 19.3413 138.263 19.3931 137.973 19.5017C135.196 20.5574 132.471 21.8155 129.629 22.632C126.663 23.4856 124.583 25.2 123.112 27.8889C122.364 29.2554 121.458 30.5333 120.528 32.001C121.052 32.1466 121.562 32.3661 122.084 32.4155C124.158 32.6177 126.223 32.6128 128.254 32.0109C130.418 31.3695 132.317 30.2841 133.597 28.36C135.423 25.6144 137.152 22.8047 138.905 20.0098C139.007 19.8519 138.968 19.6003 139.014 19.2253Z" fill="#8C8B55"/>
<path d="M84.7106 27.2784C82.337 25.6768 79.9067 24.1778 77.7928 22.1861C79.7201 22.702 82.396 24.6655 84.7106 27.2784ZM71.7253 20.0814C72.2662 20.546 72.9582 20.9053 73.3102 21.5008C73.988 22.6455 74.4485 23.9392 75.039 25.148C75.731 26.5648 76.26 28.1511 77.2166 29.3189C80.5373 33.3768 84.8665 33.7823 89.4625 32.8686C89.6586 32.8301 89.8286 32.6273 90.2113 32.3604C89.8546 31.9933 89.609 31.6392 89.2854 31.421C87.9156 30.5072 86.9472 29.2547 86.5032 27.5736C86.0001 25.6562 84.8854 24.3242 83.2227 23.5824C81.5056 22.8175 79.7413 22.1655 77.9984 21.4649C76.3073 20.7847 74.6115 20.1199 72.9299 19.4115C72.2308 19.1164 71.7325 19.0573 71.7514 20.1122L71.7253 20.0814Z" fill="#8C8B55"/>
<path d="M105.155 31.0833C105.212 31.0711 105.268 31.059 105.325 31.0492C105.325 32.0064 105.325 32.9635 105.325 33.9206C105.268 33.9182 105.212 33.9157 105.155 33.9109C105.155 32.9684 105.155 32.0258 105.155 31.0833ZM105.069 25.1506C104.629 27.8807 102.983 30.0142 101.575 32.245C99.2483 35.9347 101.371 40.4281 103.558 42.391C104.199 42.9682 104.885 43.0462 105.583 42.6029C106.153 42.2425 106.757 41.8601 107.168 41.3487C109.21 38.8012 110.05 35.8787 108.952 32.7808C108.023 30.153 106.642 27.681 105.46 25.1409C105.33 25.1457 105.2 25.1481 105.069 25.1506Z" fill="#8C8B55"/>
<path d="M10.2131 18.3527C9.69335 19.1174 9.39566 19.5816 9.07109 20.026C7.90711 21.6273 6.11106 22.0544 4.40289 21.1482C3.22672 20.5251 3.04856 19.9267 3.85384 18.8393C5.96464 15.9917 7.97055 13.0398 10.8012 10.8327C11.1063 10.5944 11.3649 10.2965 11.831 9.85209C11.2697 9.74037 10.9208 9.59883 10.5792 9.61376C9.27851 9.67331 7.97298 9.7056 6.68699 9.88433C2.15058 10.5075 -0.875313 15.165 0.227655 19.7082C0.593691 21.2152 1.43071 22.2877 2.79724 22.9506C4.16864 23.616 5.61572 23.8146 7.10183 23.5464C8.95641 23.2137 10.5499 21.2947 10.5865 19.3929C10.5914 19.1918 10.4498 18.9883 10.2131 18.3527Z" fill="#8C8B55"/>
<path d="M197.43 9.86914C197.875 10.3011 198.117 10.6301 198.447 10.8387C201.785 12.9201 203.838 16.0079 206.044 18.9632C206.898 20.1046 206.396 21.0496 204.947 21.4079C203.264 21.8252 201.686 21.268 200.749 19.8886C200.395 19.3658 200.124 18.7987 199.681 18.0158C199.461 18.4968 199.255 18.757 199.233 19.0295C199.088 20.8777 199.976 22.2253 201.745 23.0721C203.629 23.9754 205.483 23.8305 207.206 22.7113C210.097 20.8287 210.596 17.7138 209.383 14.9132C208.962 13.9437 208.186 13.0379 207.37 12.2844C205.086 10.171 200.658 9.08125 197.43 9.86914Z" fill="#8C8B55"/>
</svg>
