<svg width="210" height="43" viewBox="0 0 210 43" fill="none" xmlns="http://www.w3.org/2000/svg">
<path d="M145.559 35.2237C146.148 33.2219 146.891 32.5833 148.454 32.7675C149.197 32.8536 150.002 33.1191 150.608 33.5448C153.079 35.2668 153.058 39.756 150.63 41.533C146.086 44.855 138.975 41.698 138.335 36.0584C138.256 35.3457 138.256 34.6091 138.326 33.8939C138.587 31.2631 140.435 29.2469 143.03 28.7184C144.984 28.3189 146.915 28.5342 148.821 29.0245C149.681 29.2446 150.534 29.5124 151.375 29.809C159.481 32.6646 167.84 33.6189 176.384 33.0927C178.045 32.9923 179.709 32.7077 181.338 32.3585C185.482 31.4688 188.576 29.0388 190.874 25.5589C192.427 23.208 192.84 20.6417 192.135 17.8984C191.68 16.1334 191.121 15.6574 189.245 15.5283C189.031 15.5115 188.818 15.4637 188.61 15.4326C188.703 13.7608 189.571 13.0457 191.03 13.3973C192.516 13.7536 193.41 14.7797 193.993 16.1094C195.371 19.2545 195.001 22.3446 193.41 25.26C190.894 29.8735 186.853 32.612 181.858 33.9346C178.129 34.9248 174.314 35.384 170.438 34.9965C170 34.9511 169.556 34.9463 169.096 35.0252C170.788 36.0178 172.658 36.4674 174.551 36.7639C176.969 37.1442 179.404 37.4384 181.842 37.6919C184.257 37.9431 186.623 37.6106 188.919 36.8166C190.865 36.1421 192.785 35.3863 194.75 34.7789C196.679 34.1809 199.682 35.3505 200.823 37.0031C201.321 37.7254 201.175 38.3831 200.612 38.9619C198.764 40.8585 196.583 41.9635 193.87 41.4636C192.562 41.222 191.303 40.7222 190.007 40.4041C188.768 40.1028 187.51 39.6723 186.259 39.6651C178.352 39.6244 170.783 38.022 163.454 35.1089C162.021 34.5373 160.447 34.3292 158.949 33.9083C156.806 33.3104 154.678 32.6622 152.54 32.05C150.618 31.4999 148.715 30.8135 146.755 30.4882C145.477 30.2754 144.082 30.4595 142.793 30.725C141.051 31.0813 140.214 32.2724 139.998 34.0303C139.478 38.2875 143.301 41.6884 147.433 41.1455C149.676 40.8489 151.2 38.5147 150.608 36.3167C150.429 35.647 150.002 35.2333 149.345 35.1448C148.746 35.0635 148.128 35.0874 147.522 35.1017C146.927 35.1137 146.335 35.1735 145.559 35.2237Z" fill="#8C8B55"/>
<path d="M41.0879 34.9889C38.7968 34.9889 36.4958 35.1066 34.2145 34.9624C30.3349 34.7198 26.5676 33.9149 23.154 31.9735C19.3818 29.8279 16.5417 26.8894 15.4144 22.6246C14.7995 20.2963 14.8459 17.9777 15.8658 15.736C16.3269 14.7244 17.0491 13.9556 18.0935 13.5376C19.6526 12.9128 20.8604 13.5952 21.1337 15.3203C20.7311 15.2867 20.3578 15.2675 19.9845 15.2266C18.5424 15.0633 17.991 15.3636 17.6713 16.7884C16.8198 20.6015 17.3639 24.131 20.1211 27.1152C23.0637 30.2988 26.7872 32.0768 31.0425 32.8072C35.959 33.6506 40.883 33.355 45.7898 32.7111C48.4298 32.3627 51.0772 32.0119 53.6758 31.4569C56.1036 30.9379 58.4655 30.1234 60.8664 29.4819C62.2816 29.1046 63.7042 28.6818 65.151 28.5064C68.6402 28.0835 70.685 29.775 72.0147 33.2637C72.9102 35.6136 72.471 37.9874 70.6825 39.8303C68.306 42.2763 65.3072 43.2638 61.8644 42.7592C60.5785 42.5718 59.5366 41.923 58.6509 41.0076C57.4822 39.8039 57.1015 38.4296 57.775 36.8582C58.058 36.1902 58.3533 35.5151 58.7461 34.9072C59.8807 33.1484 62.3182 32.5838 64.1556 33.6097C65.317 34.256 65.6 35.0321 65.0266 36.2142C64.7875 36.1013 64.5166 36.0292 64.3166 35.8707C62.8843 34.7366 61.3984 34.6308 60.3614 35.6112C59.3561 36.5626 59.1804 38.5809 60.0222 39.8111C60.7396 40.8611 61.8132 41.4665 63.0454 41.4281C65.3634 41.356 67.5276 40.7409 69.16 38.9509C70.8362 37.1152 71.0826 34.345 69.7236 32.2618C68.9086 31.0172 67.7692 30.2964 66.2124 30.2171C64.4752 30.1306 62.7989 30.3565 61.2495 31.1229C58.5216 32.4708 55.5717 33.0427 52.6217 33.5977C49.2741 34.2272 45.924 34.8831 42.8032 36.2623C36.9765 38.838 30.8131 39.5156 24.535 39.5612C22.1292 39.5804 19.8381 39.8063 17.5811 40.7842C15.2997 41.7717 12.8304 41.9976 10.4612 40.986C9.55839 40.6016 8.68733 39.9721 8.02611 39.2537C7.10868 38.2565 7.18674 37.2931 8.28473 36.5074C9.46079 35.6664 10.7833 34.9937 12.1204 34.4218C12.6035 34.2152 13.3453 34.4146 13.9065 34.6044C15.2485 35.0561 16.5539 35.6039 17.8715 36.123C20.4285 37.1297 23.0808 37.6582 25.838 37.6438C29.3004 37.627 32.7676 37.5406 36.1616 36.8029C37.8525 36.4329 39.4922 35.8394 41.1538 35.3469C41.1318 35.2291 41.1099 35.109 41.0879 34.9889Z" fill="#8C8B55"/>
<path d="M62.368 21.6759C60.8863 21.2226 59.3773 20.8429 57.9328 20.2941C55.8267 19.4954 55.118 18.197 55.3188 16.0263C55.398 15.1761 55.8069 14.7131 56.6245 14.7989C57.8709 14.9336 59.189 14.9801 60.3288 15.4285C64.4048 17.0308 67.5193 19.8605 70.0244 23.3712C70.5001 24.0377 70.1904 25.0666 69.2984 25.5199C68.6492 25.8506 67.8885 26.1029 67.1675 26.1324C61.3496 26.3627 55.8316 27.9992 50.2864 29.5256C46.6663 30.5227 42.9943 31.2013 39.2082 31.0298C37.2161 30.9392 35.3256 30.5031 33.6729 29.3467C32.1515 28.281 31.1951 26.8796 31.0563 24.9417C32.2556 24.4885 33.331 24.6942 34.3914 24.8706C37.06 25.3116 39.7335 25.6399 42.6127 25.4268C41.7727 24.1969 40.9749 23.0037 41.131 21.2373C41.7554 21.3623 42.3724 21.3721 42.8853 21.6073C44.2406 22.2296 45.5464 22.9597 46.8819 23.626C49.9668 25.1646 53.1879 26.0858 56.7261 25.6056C56.4139 25.5223 56.1042 25.4219 55.787 25.3582C55.3931 25.2822 54.9917 25.2332 54.5928 25.1793C52.281 24.8608 50.1055 24.1577 48.1406 22.8911C46.6663 21.938 46.4929 21.306 47.147 19.7478C47.4741 18.9711 48.0242 18.4836 48.8493 18.5644C50.0386 18.6845 51.2552 18.8193 52.3826 19.1843C54.1294 19.7502 55.8044 20.5293 57.5215 21.1933C59.0825 21.7959 60.6881 22.1585 62.368 21.6759Z" fill="#8C8B55"/>
<path d="M167.666 26.8528C169.867 26.4566 172.067 26.0553 174.271 25.6716C175.41 25.4722 176.548 25.2753 177.696 25.1383C178.404 25.056 179.114 25.1532 179.5 25.8834C179.878 26.6036 179.629 27.3113 179.133 27.8023C178.242 28.6895 177.325 29.609 176.259 30.247C174.01 31.5927 171.504 31.9541 168.899 31.7372C164.487 31.3759 160.183 30.5112 156.093 28.819C153.199 27.6204 150.17 27.3512 147.123 27.0298C145.4 26.8503 143.684 26.5886 141.965 26.3494C141.624 26.302 141.28 26.2273 140.954 26.1151C139.698 25.6815 139.427 25.1432 140.144 24.0592C140.906 22.9103 141.716 21.7341 142.737 20.8319C144.508 19.2619 146.431 17.8614 148.339 16.4534C149.878 15.317 151.704 14.9382 153.567 14.7987C154.721 14.7139 155.132 15.1675 155.127 16.3462C155.122 17.8439 154.596 19.075 153.166 19.7429C151.908 20.3286 150.626 20.8569 149.36 21.43C148.914 21.6319 148.493 21.8911 148.06 22.1253C148.092 22.2475 148.127 22.3696 148.16 22.4917C148.745 22.3945 149.353 22.3696 149.911 22.1876C152.324 21.3977 154.711 20.5155 157.137 19.7679C158.447 19.3641 159.807 19.0401 161.167 18.9006C162.619 18.7536 163.272 19.2968 163.648 20.5304C163.952 21.5223 163.718 21.9908 162.415 22.9028C160.283 24.3956 157.891 25.1906 155.333 25.5619C154.696 25.6541 154.075 25.8759 153.448 26.0404C153.463 26.165 153.478 26.2896 153.493 26.4142C153.856 26.464 154.22 26.5637 154.581 26.5563C157.909 26.4865 160.92 25.3675 163.775 23.7427C164.629 23.2543 165.481 22.7559 166.368 22.3397C166.991 22.0506 167.661 21.8063 168.336 21.6917C169.484 21.4923 169.892 21.9609 169.504 23.0424C169.235 23.795 168.809 24.4953 168.41 25.1956C168.156 25.6367 167.82 26.0329 167.521 26.4491C167.568 26.5837 167.618 26.7182 167.666 26.8528Z" fill="#8C8B55"/>
<path d="M105.369 33.2747C104.94 32.1969 104.604 31.4859 104.372 30.7426C103.632 28.3641 102.341 26.3251 100.387 24.7914C98.3455 23.1909 96.1771 21.7515 94.0835 20.2154C93.0641 19.4671 92.0546 18.6941 91.1075 17.8567C90.4346 17.2621 90.0109 16.4643 90.3075 15.5352C90.614 14.5739 91.4914 14.3163 92.3687 14.1998C97.705 13.4937 103.729 16.2066 104.509 22.9803C104.681 24.462 104.841 25.9435 105.217 27.4771C105.277 27.0882 105.342 26.7016 105.392 26.3152C105.574 24.8336 105.556 23.2975 105.965 21.8828C107.258 17.4355 110.491 15.0843 114.928 14.2221C115.825 14.0487 116.77 14.0314 117.689 14.0611C118.806 14.0933 119.957 14.2345 120.408 15.4956C120.845 16.7146 120.007 17.4851 119.207 18.1318C117.866 19.2194 116.441 20.2055 115.035 21.2138C113.721 22.1553 112.338 23.0027 111.077 24.0085C108.462 26.0872 106.827 28.8324 105.875 31.9987C105.783 32.3059 105.638 32.5983 105.369 33.2747Z" fill="#8C8B55"/>
<path d="M130.064 33.2611C130.473 31.6779 130.39 31.4812 129.068 30.9056C129.47 31.8527 129.767 32.5569 130.064 33.2611ZM116.831 27.6104C120.816 21.3307 133.289 20.2209 138.275 25.7551C137.96 26.0878 137.675 26.4933 137.298 26.775C135.191 28.3559 133.571 30.3641 132.1 32.5156C131.723 33.0644 131.248 33.5574 130.763 34.0188C129.828 34.9051 129.506 34.9828 128.418 34.2883C127.134 33.4724 125.938 32.5229 124.691 31.6487C123.488 30.8109 122.319 29.9027 121.04 29.2009C120.019 28.64 118.855 28.3437 117.754 27.9309C117.457 27.8216 117.157 27.7245 116.831 27.6104Z" fill="#8C8B55"/>
<path d="M79.5041 32.5334C79.4308 32.5865 79.36 32.6397 79.2891 32.6953C79.5648 33.0699 79.843 33.4469 80.2653 34.0188C80.4929 33.5102 80.5991 33.2698 80.7078 33.0268C80.2602 32.8421 79.8809 32.6877 79.5041 32.5334ZM71.7253 25.8754C73.3767 23.6611 75.5819 22.7982 78.0171 22.4261C83.5932 21.5784 88.6156 22.9677 93.1321 26.2954C93.3193 26.4346 93.4963 26.5915 93.6581 26.7585C93.7339 26.8395 93.7618 26.966 93.9084 27.2824C93.4861 27.5 93.079 27.7885 92.6238 27.9277C89.4147 28.9273 86.724 30.7797 84.1825 32.9104C83.2847 33.662 82.3263 34.3478 81.3502 34.9982C80.2248 35.7472 79.8632 35.6764 79.0008 34.5756C78.4976 33.9303 78.0728 33.2191 77.6201 32.5334C76.1534 30.3242 74.6613 28.1402 72.3955 26.6396C72.1654 26.4877 72.0162 26.2145 71.7253 25.8754Z" fill="#8C8B55"/>
<path d="M93.857 35.3542C94.9144 35.1028 96.0849 35.074 96.8459 33.6338C95.4594 33.8354 94.5402 34.3591 93.857 35.3542ZM83.5563 39.8818C84.8725 37.2946 85.6964 34.7519 87.56 32.7985C90.5817 29.6379 95.3891 28.648 99.2044 30.5256C101.761 31.7825 103.314 33.8564 103.653 36.8364C103.851 38.5725 104.052 40.3112 104.261 42.1285C103.419 42.2647 103.035 41.6493 102.535 41.3168C100.764 40.1462 98.996 38.9757 97.2327 37.7948C96.2632 37.1453 95.3515 37.1218 94.2789 37.6743C92.6086 38.5306 90.8705 39.2533 89.1299 39.9446C87.3717 40.6464 85.5908 40.3374 83.5563 39.8818Z" fill="#8C8B55"/>
<path d="M114.511 33.6358C114.398 33.7815 114.288 33.9271 114.178 34.0727C114.726 34.6092 115.277 35.1482 115.825 35.6847C115.926 35.5672 116.025 35.4471 116.125 35.3296C115.586 34.765 115.047 34.2004 114.511 33.6358ZM124.965 39.6367C123.711 40.2396 122.469 40.1501 121.243 39.9815C119.497 39.744 117.82 39.1641 116.35 38.1192C114.588 36.8649 112.933 37.1484 111.314 38.2827C110.269 39.0159 109.313 39.9024 108.324 40.7326C107.872 41.1133 107.443 41.5246 106.754 42.1479C106.62 41.379 106.419 40.9242 106.496 40.5333C106.916 38.4002 107.251 36.2211 107.907 34.1698C108.9 31.0659 111.413 30.1386 114.098 29.7196C118.391 29.0477 120.967 30.7389 123.207 35.2018C123.901 36.5864 124.367 38.1064 124.965 39.6367Z" fill="#8C8B55"/>
<path d="M69.197 13.9711C68.9273 17.5817 69.0841 18.8056 69.8884 19.6248C69.9737 17.6233 69.8562 15.7568 69.197 13.9711ZM70.8703 22.1537C69.5819 21.0622 68.2474 20.0246 67.0143 18.8644C65.2949 17.2481 63.4488 15.7224 62.2871 13.5639C61.6556 12.394 61.1255 11.1259 60.7752 9.83568C60.3557 8.28553 60.8789 7.34609 62.2226 6.65197C66.369 4.50577 71.382 7.2725 72.2002 12.0751C72.7234 15.1484 72.5114 18.0673 71.1976 20.8831C71.0109 21.2805 70.9602 21.749 70.8449 22.1831L70.8703 22.1537Z" fill="#8C8B55"/>
<path d="M142.407 14.4675C141.658 16.1052 141.56 17.1986 142.022 18.7571C142.323 17.2872 142.648 16.0021 142.407 14.4675ZM138.275 13.7674C138.556 12.4247 138.774 11.0628 139.14 9.74643C139.548 8.28383 140.523 7.2936 141.807 6.67497C143.627 5.80219 145.514 5.66554 147.394 6.34889C149.116 6.97229 149.721 8.2982 149.167 10.1469C148.677 11.7893 148.101 13.4149 146.979 14.7001C145.427 16.4816 143.87 18.2631 142.236 19.9535C141.145 21.078 140.576 20.9414 139.825 19.5291C138.884 17.7668 138.279 15.8918 138.275 13.7674Z" fill="#8C8B55"/>
<path d="M139.014 23.662C138.572 23.546 138.263 23.4942 137.973 23.3857C135.196 22.3299 132.471 21.0718 129.629 20.2553C126.663 19.4017 124.583 17.6873 123.112 14.9985C122.364 13.6319 121.458 12.354 120.528 10.8863C121.052 10.7407 121.562 10.5212 122.084 10.4718C124.158 10.2696 126.223 10.2745 128.254 10.8764C130.418 11.5178 132.317 12.6032 133.597 14.5273C135.423 17.2729 137.152 20.0826 138.905 22.8775C139.007 23.0354 138.968 23.287 139.014 23.662Z" fill="#8C8B55"/>
<path d="M84.7106 15.6089C82.337 17.2105 79.9067 18.7095 77.7928 20.7012C79.7201 20.1853 82.396 18.2218 84.7106 15.6089ZM71.7253 22.8059C72.2662 22.3413 72.9582 21.982 73.3102 21.3865C73.988 20.2418 74.4485 18.9482 75.039 17.7393C75.731 16.3225 76.26 14.7363 77.2166 13.5684C80.5373 9.51054 84.8665 9.10498 89.4625 10.0188C89.6586 10.0573 89.8286 10.26 90.2113 10.5269C89.8546 10.894 89.609 11.2482 89.2854 11.4663C87.9156 12.3801 86.9472 13.6326 86.5032 15.3138C86.0001 17.2311 84.8854 18.5632 83.2227 19.3049C81.5056 20.0698 79.7413 20.7218 77.9984 21.4224C76.3073 22.1026 74.6115 22.7674 72.9299 23.4758C72.2308 23.7709 71.7325 23.83 71.7514 22.7751L71.7253 22.8059Z" fill="#8C8B55"/>
<path d="M105.155 11.804C105.212 11.8162 105.268 11.8284 105.325 11.8381C105.325 10.881 105.325 9.92389 105.325 8.96675C105.268 8.96917 105.212 8.97165 105.155 8.9765C105.155 9.91899 105.155 10.8615 105.155 11.804ZM105.069 17.7367C104.629 15.0066 102.983 12.8732 101.575 10.6423C99.2483 6.95266 101.371 2.45929 103.558 0.496338C104.199 -0.0808868 104.885 -0.158802 105.583 0.284428C106.153 0.64489 106.757 1.02724 107.168 1.53868C109.21 4.08613 110.05 7.00865 108.952 10.1065C108.023 12.7344 106.642 15.2064 105.46 17.7465C105.33 17.7416 105.2 17.7392 105.069 17.7367Z" fill="#8C8B55"/>
<path d="M10.2131 24.5346C9.69335 23.77 9.39566 23.3057 9.07109 22.8613C7.90711 21.26 6.11106 20.833 4.40289 21.7391C3.22672 22.3623 3.04856 22.9606 3.85384 24.048C5.96464 26.8957 7.97055 29.8475 10.8012 32.0546C11.1063 32.2929 11.3649 32.5908 11.831 33.0352C11.2697 33.147 10.9208 33.2885 10.5792 33.2736C9.27851 33.214 7.97298 33.1817 6.68699 33.003C2.15058 32.3798 -0.875313 27.7224 0.227655 23.1791C0.593691 21.6721 1.43071 20.5996 2.79724 19.9367C4.16864 19.2714 5.61572 19.0728 7.10183 19.3409C8.95641 19.6736 10.5499 21.5927 10.5865 23.4944C10.5914 23.6955 10.4498 23.8991 10.2131 24.5346Z" fill="#8C8B55"/>
<path d="M197.43 33.0182C197.875 32.5862 198.117 32.2573 198.447 32.0487C201.785 29.9672 203.838 26.8794 206.044 23.9241C206.898 22.7828 206.396 21.8378 204.947 21.4794C203.264 21.0621 201.686 21.6193 200.749 22.9988C200.395 23.5216 200.124 24.0886 199.681 24.8716C199.461 24.3905 199.255 24.1303 199.233 23.8579C199.088 22.0096 199.976 20.662 201.745 19.8152C203.629 18.912 205.483 19.0568 207.206 20.1761C210.097 22.0587 210.596 25.1735 209.383 27.9741C208.962 28.9437 208.186 29.8494 207.37 30.6029C205.086 32.7163 200.658 33.8061 197.43 33.0182Z" fill="#8C8B55"/>
</svg>
