<svg width="83" height="100" viewBox="0 0 83 100" fill="none" xmlns="http://www.w3.org/2000/svg">
<path d="M0 99.9995C0 99.9995 5.56164 99.9927 13.3303 91.2056C22.6669 80.6447 32.8918 75.9458 45.556 75.0871C59.5914 74.136 71.7606 81.0535 76.1814 91.9206C80.604 102.788 65.9583 101.472 59.683 95.1399C53.4077 88.8074 59.8898 81.3956 67.8873 87.4133C72.3454 90.7677 71.6148 96.4091 64.0597 94.495C64.0597 94.495 68.406 98.496 73.0998 97.2507C77.7935 96.0071 73.7303 86.7069 65.1158 81.3032C56.4996 75.8979 47.7427 76.7378 36.3838 80.4959C24.3061 84.4917 15.7323 90.0561 26.664 99.9961L0 99.9995Z" fill="#8C8B55"/>
<path d="M44.3621 78.3697C47.6069 77.1724 37.614 78.7847 33.6796 84.657C29.4749 90.9306 27.8897 94.2493 24.4049 93.6088C23.1408 93.3782 22.3144 92.0306 22.3803 90.7342C22.4462 89.4395 23.1442 88.2746 23.8236 87.1729C22.2924 88.8041 21.1686 90.8999 21.0165 93.1425C20.8627 95.3852 21.7888 97.7542 23.6275 99.0199C25.7366 100.472 28.0925 100.354 30.5633 98.376C32.5642 96.7755 34.1849 94.5551 35.8057 91.0126C35.8057 91.0365 36.6304 81.2238 44.3621 78.3697Z" fill="#8C8B55"/>
<path d="M35.0132 89.9918C35.8776 92.2832 37.1543 95.4909 41.4278 98.4342C43.9518 100.174 47.4748 100.393 50.4164 99.4419C53.358 98.4907 55.7803 95.89 55.9856 92.9051C56.1391 90.6819 55.0574 88.447 53.2942 87.0053C51.8001 85.7814 49.7867 85.0979 47.844 85.364C45.9031 85.6284 44.0951 86.9121 43.4463 88.6964C43.1617 89.4779 43.1185 90.4025 43.6051 91.0843C44.0916 91.7677 45.2251 92.0255 45.8358 91.4435C46.3741 90.928 46.3034 90.0533 46.7347 89.453C47.3058 88.6565 48.56 88.6282 49.4693 89.0373C51.4602 89.9336 52.3038 92.5127 51.4395 94.4616C50.5751 96.4088 48.2961 97.5911 46.1015 97.4913C43.9053 97.3932 41.0448 95.9116 39.7422 94.2055C36.8817 90.4574 36.3917 87.3578 39.3109 82C36.4245 84.7537 34.8373 86.5097 35.0132 89.9918Z" fill="#8C8B55"/>
<path d="M43.3878 92.1389C41.4108 90.182 41.5938 86.7351 43.3573 84.5906C45.1191 82.4461 48.0752 81.5042 50.8822 81.5623C53.6909 81.6205 56.3997 82.554 59 83.5989C56.1489 81.0258 51.3142 78.3364 46.7945 79.147C43.4318 79.7517 40.1589 81.6603 38.697 84.6919C37.235 87.7235 38.0973 91.8698 41.0551 93.5508C41.7513 93.9462 42.6424 94.192 43.3454 93.8067C44.0467 93.4229 44.0264 92.6505 43.3878 92.1389Z" fill="#8C8B55"/>
<path d="M82 80C79.4456 76.4744 77.5438 72.5407 76.4009 68.4238C75.9106 66.6552 75.6438 64.5489 76.976 63.2102C78.2559 61.9236 80.1144 61.9488 82 62.0344V80Z" fill="#8C8B55"/>
<path d="M81.5911 95C81.5911 87.2641 76.6476 81.1543 71.7005 75.606C66.7552 70.0577 61.0574 64.5697 59.399 57.392C58.8315 54.9322 58.7927 52.2846 59.7884 49.9592C60.4123 48.5002 61.4945 47.1963 62.8444 46.3471C64.2385 45.4703 66.0785 46.3454 66.2512 47.9559C66.6213 51.4268 64.977 55.2698 65.5092 58.8595C66.1877 63.4432 70.1813 66.7246 73.2039 70.2903C79.2365 77.4043 83.3482 86.8283 81.5911 95Z" fill="#8C8B55"/>
<path d="M76.716 75C73.9111 71.5085 72.1898 67.1044 71.8603 62.5817C71.7849 61.5624 71.7931 60.4804 72.2816 59.5915C72.7701 58.7025 73.8898 58.1082 74.7849 58.5484C75.2242 59.9047 76.6553 60.7852 78.0373 60.7107C79.4209 60.6379 80.6914 59.7117 81.3832 58.4739C82.8373 55.8714 81.5865 52.1988 79.0324 50.7629C76.4783 49.3253 73.0947 50.0128 70.9521 52.043C68.8095 54.0749 67.8488 57.2192 68.0193 60.218C68.1881 63.2167 69.3898 66.0749 71.0078 68.5707C72.6275 71.0666 74.6586 73.2424 76.716 75Z" fill="#8C8B55"/>
<path d="M82 49.27C80.5376 47.2048 78.3739 45.6496 75.9542 44.9224C75.2768 44.7188 74.5686 44.5785 73.8673 44.6623C73.1677 44.7445 72.4714 45.0781 72.3008 45.961C73.4902 46.5684 73.567 48.4675 72.5772 49.3641C71.5858 50.2606 69.9545 50.1614 68.8811 49.3658C67.8078 48.5719 67.2396 47.2373 67.0673 45.9113C66.5724 42.0873 68.9255 38.5645 70.3111 34.968C72.0858 30.3553 72.2889 25.1505 71.1439 20.6473C74.0686 26.3687 74.1352 33.6626 71.9953 39.7245C73.555 35.0536 77.1487 34.2066 79.1964 30.487C82.6945 24.1393 80.8021 16.8934 78.309 12.4791C75.7716 7.98443 72.3452 4.74558 69.2719 1.49304C72.0073 2.35879 74.5754 3.74809 76.6982 5.58737C76.1999 4.1245 76.589 2.39472 77.6657 1.28773C78.7408 0.179028 80.454 -0.257271 81.9437 0.149937L82 49.27Z" fill="#8C8B55"/>
<path d="M83 0V96H81V0H83Z" fill="#8C8B55"/>
</svg>
