<svg width="83" height="100" viewBox="0 0 83 100" fill="none" xmlns="http://www.w3.org/2000/svg">
<path d="M0 0.000453798C0 0.000453798 5.56164 0.00729677 13.3303 8.79439C22.6669 19.3553 32.8918 24.0542 45.556 24.9129C59.5914 25.864 71.7606 18.9465 76.1814 8.07938C80.604 -2.78774 65.9583 -1.47233 59.683 4.86012C53.4077 11.1926 59.8898 18.6044 67.8873 12.5867C72.3454 9.23229 71.6148 3.5909 64.0597 5.505C64.0597 5.505 68.406 1.50403 73.0998 2.74931C77.7935 3.99288 73.7303 13.2931 65.1158 18.6968C56.4996 24.1021 47.7427 23.2622 36.3838 19.5041C24.3061 15.5083 15.7323 9.94388 26.664 0.00387406L0 0.000453798Z" fill="#8C8B55"/>
<path d="M44.3621 21.6303C47.6069 22.8276 37.6139 21.2153 33.6796 15.343C29.4749 9.06938 27.8897 5.75066 24.4049 6.39117C23.1408 6.62176 22.3144 7.9694 22.3803 9.2658C22.4462 10.5605 23.1442 11.7254 23.8236 12.8271C22.2924 11.1959 21.1686 9.10012 21.0165 6.85747C20.8627 4.61481 21.7888 2.24576 23.6275 0.980101C25.7366 -0.471733 28.0925 -0.353878 30.5633 1.62403C32.5642 3.22447 34.1849 5.44492 35.8056 8.98739C35.8056 8.96348 36.6304 18.7762 44.3621 21.6303Z" fill="#8C8B55"/>
<path d="M35.0132 10.0082C35.8776 7.71678 37.1543 4.50909 41.4277 1.56581C43.9518 -0.17356 47.4748 -0.393061 50.4164 0.558105C53.358 1.50927 55.7802 4.11001 55.9855 7.09486C56.1391 9.31813 55.0573 11.553 53.2941 12.9947C51.8001 14.2186 49.7867 14.9021 47.844 14.636C45.9031 14.3716 44.095 13.0879 43.4463 11.3036C43.1616 10.5221 43.1185 9.59749 43.6051 8.91571C44.0916 8.23227 45.2251 7.97453 45.8358 8.55653C46.3741 9.07203 46.3034 9.9467 46.7347 10.547C47.3057 11.3435 48.56 11.3718 49.4692 10.9627C51.4602 10.0664 52.3038 7.48731 51.4395 5.53842C50.5751 3.59119 48.2961 2.40888 46.1015 2.50866C43.9053 2.60677 41.0448 4.08839 39.7422 5.7945C36.8817 9.54262 36.3917 12.6422 39.3109 18C36.4245 15.2463 34.8372 13.4903 35.0132 10.0082Z" fill="#8C8B55"/>
<path d="M43.3878 7.86113C41.4108 9.81797 41.5938 13.2649 43.3573 15.4094C45.1191 17.5539 48.0752 18.4958 50.8822 18.4377C53.6909 18.3795 56.3997 17.446 59 16.4011C56.1489 18.9742 51.3141 21.6636 46.7945 20.853C43.4318 20.2483 40.1589 18.3397 38.697 15.3081C37.235 12.2765 38.0973 8.13024 41.0551 6.44916C41.7513 6.05381 42.6424 5.80795 43.3454 6.19334C44.0467 6.57707 44.0264 7.3495 43.3878 7.86113Z" fill="#8C8B55"/>
<path d="M82 20C79.4456 23.5256 77.5438 27.4593 76.4009 31.5762C75.9106 33.3448 75.6438 35.4511 76.976 36.7898C78.2559 38.0764 80.1144 38.0512 82 37.9656V20Z" fill="#8C8B55"/>
<path d="M81.5911 5C81.5911 12.7359 76.6475 18.8457 71.7005 24.394C66.7552 29.9423 61.0574 35.4303 59.3989 42.608C58.8315 45.0678 58.7927 47.7154 59.7884 50.0408C60.4123 51.4998 61.4944 52.8037 62.8444 53.6529C64.2385 54.5297 66.0784 53.6546 66.2512 52.0441C66.6213 48.5732 64.9769 44.7302 65.5092 41.1405C66.1877 36.5568 70.1813 33.2754 73.2038 29.7097C79.2365 22.5957 83.3482 13.1717 81.5911 5Z" fill="#8C8B55"/>
<path d="M76.716 25C73.9111 28.4915 72.1898 32.8956 71.8602 37.4183C71.7848 38.4376 71.793 39.5196 72.2815 40.4085C72.7701 41.2975 73.8897 41.8918 74.7848 41.4516C75.2242 40.0953 76.6553 39.2148 78.0373 39.2893C79.4209 39.3621 80.6914 40.2883 81.3832 41.5261C82.8373 44.1286 81.5865 47.8012 79.0324 49.2371C76.4783 50.6747 73.0947 49.9872 70.952 47.957C68.8094 45.9251 67.8488 42.7808 68.0193 39.782C68.1881 36.7833 69.3897 33.9251 71.0078 31.4293C72.6274 28.9334 74.6586 26.7576 76.716 25Z" fill="#8C8B55"/>
<path d="M82 50.73C80.5376 52.7952 78.3739 54.3504 75.9542 55.0776C75.2768 55.2812 74.5686 55.4215 73.8673 55.3377C73.1676 55.2555 72.4714 54.9219 72.3008 54.039C73.4902 53.4316 73.5669 51.5325 72.5772 50.6359C71.5858 49.7394 69.9545 49.8386 68.8811 50.6342C67.8078 51.4281 67.2396 52.7627 67.0672 54.0887C66.5724 57.9127 68.9255 61.4355 70.3111 65.032C72.0858 69.6447 72.2888 74.8495 71.1439 79.3527C74.0686 73.6313 74.1352 66.3374 71.9953 60.2755C73.555 64.9464 77.1487 65.7934 79.1964 69.513C82.6945 75.8607 80.8021 83.1066 78.309 87.5209C75.7716 92.0156 72.3451 95.2544 69.2719 98.507C72.0073 97.6412 74.5754 96.2519 76.6982 94.4126C76.1999 95.8755 76.589 97.6053 77.6657 98.7123C78.7408 99.821 80.454 100.257 81.9437 99.8501L82 50.73Z" fill="#8C8B55"/>
<path d="M83 100V4H81V100H83Z" fill="#8C8B55"/>
</svg>
